<?xml version="1.0" standalone="no"?>
<!DOCTYPE svg PUBLIC "-//W3C//DTD SVG 20010904//EN"
 "http://www.w3.org/TR/2001/REC-SVG-20010904/DTD/svg10.dtd">
<svg version="1.0" xmlns="http://www.w3.org/2000/svg"
 width="1024.000000pt" height="1024.000000pt" viewBox="0 0 1024.000000 1024.000000"
 preserveAspectRatio="xMidYMid meet">

<g transform="translate(0.000000,1024.000000) scale(0.100000,-0.100000)"
fill="#404040" stroke="none">
<path d="M4740 10000 c-23 -7 -22 -8 12 -9 71 -2 144 -40 938 -496 151 -87
295 -169 320 -183 92 -51 767 -435 830 -472 36 -21 171 -97 300 -170 129 -73
264 -150 300 -170 84 -49 588 -333 660 -373 73 -40 187 -157 227 -232 39 -74
70 -172 78 -245 5 -49 3 -45 -19 35 -42 157 -91 248 -182 338 -47 46 -85 71
-259 169 -330 187 -471 267 -545 308 -215 121 -684 387 -765 434 -49 29 -133
77 -185 106 -52 29 -131 74 -175 100 -44 25 -123 70 -175 100 -52 29 -140 78
-195 110 -314 181 -949 542 -1000 568 -75 39 -140 62 -174 62 -15 0 -63 -17
-107 -38 -43 -22 -95 -44 -114 -50 -52 -17 -97 -64 -128 -129 l-26 -58 -2
-1690 c-1 -929 2 -1728 7 -1774 18 -179 72 -236 389 -411 124 -68 281 -155
350 -193 69 -38 159 -88 200 -110 41 -22 110 -60 153 -84 201 -113 447 -248
557 -306 52 -28 108 -61 123 -74 16 -13 33 -23 38 -23 12 0 539 -278 549 -289
3 -3 22 -15 43 -25 20 -11 37 -24 37 -29 0 -6 3 -8 6 -4 4 3 29 -5 56 -19 l49
-25 -7 -47 c-13 -93 -29 -110 -209 -221 -192 -119 -229 -136 -300 -136 -67 0
-104 18 -530 253 -337 186 -339 188 -284 235 39 32 28 36 -18 7 -38 -23 -45
-65 -15 -97 26 -31 730 -410 785 -424 93 -23 136 -9 332 105 109 64 346 223
356 238 9 13 41 2 103 -34 116 -69 681 -380 812 -448 169 -87 203 -91 309 -41
124 57 157 98 176 209 5 33 9 777 9 1758 l1 1701 -25 77 c-56 178 -163 297
-362 405 -66 35 -144 79 -174 96 -97 56 -188 109 -495 282 -165 94 -444 253
-620 353 -176 101 -378 215 -450 255 -71 40 -155 87 -185 105 -30 18 -127 73
-215 122 -88 50 -232 132 -320 183 -721 416 -771 441 -845 415z m-3 -141 c54
-23 181 -94 833 -466 627 -358 932 -532 1340 -763 168 -95 404 -229 525 -298
121 -69 299 -170 395 -225 96 -54 199 -117 228 -139 60 -47 135 -141 168 -213
57 -124 54 -22 54 -1855 1 -1873 5 -1754 -66 -1825 -38 -39 -81 -45 -145 -23
-37 13 -215 107 -429 226 -74 42 -193 108 -265 147 -146 81 -249 138 -475 265
-85 48 -168 94 -185 102 -16 8 -91 49 -165 90 -74 41 -234 128 -355 193 -121
65 -281 152 -355 193 -74 41 -180 99 -235 130 -55 30 -134 74 -175 97 -41 23
-131 73 -200 110 -69 37 -154 85 -190 105 -36 20 -157 87 -271 148 -242 131
-280 157 -320 220 -65 102 -61 -19 -61 1870 -1 1258 2 1728 11 1757 20 73 53
117 105 144 83 43 150 45 233 10z"/>
<path d="M4492 9790 c-20 -12 -42 -40 -55 -68 l-22 -47 -3 -1465 c-2 -950 1
-1492 7 -1542 13 -97 52 -176 119 -243 48 -48 101 -80 422 -255 47 -25 186
-102 310 -171 124 -69 286 -158 360 -199 74 -40 185 -101 245 -135 61 -34 232
-129 380 -210 149 -81 349 -192 445 -245 96 -54 324 -179 505 -278 351 -191
542 -296 694 -381 52 -29 110 -55 130 -58 33 -4 29 -1 -34 35 -112 62 -378
209 -540 297 -154 84 -492 270 -647 356 -211 117 -278 154 -533 294 -148 82
-304 167 -345 190 -41 23 -174 96 -295 162 -255 140 -373 204 -505 278 -52 29
-174 97 -270 150 -213 118 -277 158 -261 163 6 2 116 -55 244 -126 127 -71
329 -183 447 -247 118 -65 355 -195 525 -290 171 -94 351 -193 400 -220 50
-27 191 -105 315 -173 354 -196 705 -390 820 -452 58 -32 197 -108 310 -170
113 -62 230 -126 260 -143 30 -16 79 -45 108 -64 52 -33 54 -33 82 -17 15 10
37 34 49 54 21 37 21 37 21 1533 1 1095 -2 1508 -11 1539 -24 92 -83 180 -153
227 -22 15 -131 79 -241 141 -110 62 -317 180 -460 260 -668 378 -982 556
-1510 857 -313 179 -680 389 -815 466 -393 227 -429 241 -498 197z m159 -65
c-66 -56 -62 51 -59 -1647 2 -845 0 -1531 -4 -1525 -4 6 -14 41 -23 77 -14 58
-15 220 -13 1530 3 1385 4 1467 21 1505 24 54 55 85 85 85 23 0 23 0 -7 -25z
m362 -531 c27 -53 46 -98 44 -100 -2 -3 -19 9 -37 26 -18 17 -35 28 -38 25 -6
-6 -5 -1105 1 -1111 2 -2 68 67 148 154 79 86 190 204 245 262 56 58 111 116
122 130 19 23 21 23 28 7 5 -13 -12 -37 -67 -95 -40 -42 -80 -84 -89 -93 -8
-9 -49 -52 -90 -95 -86 -90 -242 -262 -283 -312 -18 -22 -27 -45 -27 -69 0
-35 0 -35 -17 -15 -18 20 -19 20 -71 -39 -30 -32 -51 -63 -48 -68 4 -5 36 -26
72 -46 l66 -37 71 26 c40 14 79 26 87 26 25 -1 -27 -38 -71 -51 -21 -7 -39
-15 -39 -18 0 -3 17 -16 38 -27 20 -12 104 -61 186 -108 82 -48 151 -85 152
-83 7 7 44 162 44 184 0 12 -5 25 -12 29 -8 5 -7 10 5 18 8 7 34 79 57 161 44
160 96 323 210 659 69 204 87 276 70 276 -4 0 -45 -43 -90 -95 -75 -86 -101
-105 -100 -72 1 7 40 58 88 114 152 175 163 187 172 173 5 -8 23 -68 40 -134
17 -67 95 -285 173 -486 263 -683 250 -646 226 -638 -6 2 -37 71 -69 153 -32
83 -88 227 -125 320 -37 94 -85 220 -107 280 -23 61 -45 114 -49 119 -7 8 -6
-157 9 -999 l7 -360 109 -62 109 -62 63 44 62 45 81 -14 c82 -15 266 -71 288
-88 7 -6 42 -70 78 -143 85 -171 95 -180 95 -86 0 54 3 71 14 71 18 0 26 -31
26 -111 0 -36 5 -81 12 -99 10 -31 9 -35 -21 -62 -19 -17 -43 -28 -61 -28 -38
0 -39 21 -2 49 49 36 60 29 -388 263 -96 50 -213 110 -260 134 -47 24 -113 59
-147 78 l-63 36 0 -122 0 -122 128 -195 c178 -270 268 -429 512 -896 107 -205
174 -316 220 -366 36 -39 39 -40 27 -14 -20 43 -29 95 -16 95 6 0 14 -10 17
-22 6 -23 6 -23 13 2 4 14 7 259 8 545 1 414 4 516 13 507 10 -10 14 -139 16
-555 1 -298 5 -557 8 -576 l5 -33 28 26 c29 28 51 34 51 13 0 -13 -84 -120
-99 -125 -5 -2 -20 17 -35 42 -21 36 -41 52 -113 91 -49 26 -113 62 -143 80
-67 40 -960 541 -1235 692 -369 204 -410 228 -409 241 1 6 2 262 3 568 l1 556
30 -19 c40 -25 197 -161 287 -247 40 -38 74 -67 76 -65 8 11 55 194 51 200 -2
4 -84 51 -181 105 -228 125 -422 238 -423 244 0 3 36 44 80 91 l79 86 1 404
c1 222 1 491 1 597 l-1 193 -35 -7 c-26 -5 -35 -3 -35 7 0 14 80 119 90 119 3
0 27 -43 53 -96z m327 -204 c0 -15 -18 -12 -51 7 -46 28 -37 47 11 23 22 -11
40 -25 40 -30z m-34 -140 l1 -113 52 -23 c29 -13 51 -29 51 -38 0 -12 -13 -9
-62 14 l-63 30 -3 126 c-2 99 0 125 10 122 10 -4 13 -36 14 -118z m226 -3 c18
-28 0 -38 -22 -12 -18 22 -30 18 -30 -10 0 -18 7 -28 25 -35 26 -10 43 -36 31
-47 -3 -4 -12 -1 -18 5 -19 19 -38 14 -38 -11 0 -27 17 -47 41 -47 9 0 20 -7
23 -16 5 -14 1 -16 -30 -11 -60 10 -64 18 -64 128 l0 99 37 -15 c21 -9 41 -21
45 -28z m886 -395 c3 -99 3 -101 32 -122 36 -25 43 -58 9 -40 -34 19 -35 2 -1
-33 47 -48 42 -80 -5 -35 l-23 21 0 -126 c0 -70 -3 -127 -7 -127 -13 0 -68 42
-87 67 -18 25 -18 25 3 18 21 -6 21 -4 21 122 l0 128 -68 25 c-92 34 -95 55
-15 140 32 34 62 68 66 76 7 11 13 12 40 1 l32 -13 3 -102z m295 -96 c65 -27
67 -33 67 -186 l0 -138 43 -25 c24 -14 50 -33 57 -42 24 -28 2 -27 -42 2 -24
16 -73 46 -110 67 -38 20 -68 39 -68 42 0 3 9 0 19 -6 11 -5 22 -10 25 -10 3
0 6 56 6 125 0 125 0 126 -25 135 -24 9 -32 29 -18 43 8 9 9 9 46 -7z m408
-356 c39 -22 73 -40 75 -40 15 0 104 -65 104 -76 0 -8 -3 -14 -8 -14 -21 0
-247 138 -250 153 -5 23 -1 22 79 -23z m-354 -26 c105 -60 131 -80 120 -90 -6
-6 -50 15 -182 87 -45 25 -72 59 -46 59 6 0 54 -25 108 -56z m387 -101 c121
-68 156 -91 156 -104 0 -5 -7 -9 -15 -9 -25 0 -250 136 -253 154 -2 9 0 16 4
16 4 0 53 -26 108 -57z m-1827 -15 c17 -21 23 -61 16 -101 -14 -88 -73 -43
-73 54 0 55 1 59 24 59 13 0 28 -6 33 -12z m-103 -55 c-3 -12 -13 -24 -22 -28
-19 -7 -43 20 -35 41 8 22 23 17 24 -8 1 -22 2 -20 15 21 7 23 24 -2 18 -26z
m856 -3 c15 -28 12 -50 -16 -110 -15 -33 -21 -56 -15 -58 11 -4 16 -32 6 -32
-4 0 -19 7 -35 15 l-29 15 24 37 c30 43 50 105 42 127 -11 29 -27 17 -27 -20
0 -24 -4 -34 -12 -32 -20 7 -21 46 -3 74 13 20 19 22 35 14 11 -6 24 -19 30
-30z m1091 -43 c104 -59 141 -88 128 -101 -9 -9 -259 137 -259 151 0 21 12 16
131 -50z m434 17 c63 -41 110 -148 74 -169 -7 -5 -4 -15 9 -29 11 -11 26 -38
33 -59 12 -33 11 -42 -2 -65 -34 -62 -151 -24 -220 71 -55 77 -32 90 37 21 69
-68 124 -82 124 -32 0 27 -23 57 -67 87 -44 30 -43 51 2 51 43 0 45 16 9 60
-19 22 -34 30 -53 29 -53 -4 -61 0 -61 30 0 45 51 47 115 5z m-2195 -24 c0
-29 -4 -40 -15 -40 -11 0 -15 11 -15 40 0 29 4 40 15 40 11 0 15 -11 15 -40z
m728 -143 c2 -20 -1 -37 -6 -37 -14 0 -35 47 -28 65 10 28 31 11 34 -28z m142
-2 c23 -24 21 -50 -2 -27 -7 7 -15 12 -20 12 -13 0 4 -34 28 -58 26 -25 29
-46 14 -86 -12 -32 -23 -33 -50 -4 -16 18 -20 35 -20 98 0 98 8 109 50 65z
m271 -41 c22 -23 24 -34 24 -116 0 -75 -3 -93 -17 -102 -14 -8 -22 -6 -40 12
-20 19 -23 35 -27 113 -2 60 1 94 9 104 17 20 23 19 51 -11z m-175 -129 c3
-14 3 -37 -2 -52 -6 -24 -8 -25 -12 -8 -2 10 -11 29 -19 42 -8 12 -12 27 -8
33 11 19 35 10 41 -15z m47 -138 c22 -70 23 -94 2 -77 -17 14 -47 108 -39 121
11 19 21 7 37 -44z m1119 -29 c9 -13 85 -158 171 -324 86 -165 171 -327 191
-360 l34 -59 -31 -12 c-40 -14 -97 -16 -97 -3 0 5 9 15 20 22 11 7 20 18 20
24 0 11 -244 153 -445 260 -49 26 -139 76 -199 111 -60 35 -111 62 -113 60 -2
-2 5 -25 16 -51 28 -64 9 -58 -35 12 -20 31 -45 67 -57 79 -11 13 -19 25 -16
27 2 2 36 17 74 34 39 17 151 69 250 116 99 47 185 86 191 86 7 0 18 -10 26
-22z m-756 -96 c19 -13 35 -52 29 -72 -3 -11 -19 -29 -36 -40 -16 -12 -29 -25
-29 -30 0 -5 29 -27 64 -50 36 -23 67 -49 70 -57 7 -17 9 -18 -70 25 -90 49
-105 94 -48 147 15 14 22 29 18 39 -9 22 -24 20 -24 -4 0 -11 -4 -20 -10 -20
-11 0 -14 53 -3 63 8 9 25 9 39 -1z m-203 -549 c4 -59 9 -70 33 -90 16 -12 26
-25 22 -28 -6 -6 -78 25 -78 34 -7 77 -8 119 -4 134 11 35 21 15 27 -50z m-45
-1 c3 -9 -2 -13 -14 -10 -9 1 -19 9 -22 16 -3 9 2 13 14 10 9 -1 19 -9 22 -16z
m550 -111 l3 -53 25 17 c34 22 43 11 22 -25 -10 -17 -13 -32 -7 -35 5 -4 16
-19 24 -36 19 -36 3 -39 -29 -4 -30 32 -36 32 -36 -6 0 -20 -4 -29 -12 -27 -9
3 -14 38 -16 117 -2 88 0 112 10 109 8 -3 14 -26 16 -57z m412 19 c0 -5 23
-25 51 -46 53 -39 123 -135 151 -209 9 -22 18 -65 22 -95 8 -66 12 -72 54 -94
23 -12 32 -23 30 -36 -2 -11 0 -19 5 -20 34 -2 37 1 37 40 0 28 4 40 14 40 15
0 20 -12 31 -72 3 -21 10 -38 15 -38 5 0 14 -9 21 -21 10 -19 8 -20 -10 -14
-18 5 -22 1 -27 -25 -9 -40 -29 -33 -29 11 0 31 -3 34 -31 37 -27 3 -33 8 -38
37 -5 25 -14 36 -36 43 -28 10 -30 9 -36 -24 -11 -60 -57 -111 -115 -128 -35
-11 -57 -13 -69 -6 -10 6 -25 7 -34 4 -16 -6 -34 7 -117 89 -74 73 -118 163
-132 267 -9 69 -13 78 -43 100 -43 32 -46 57 -4 35 16 -8 31 -15 33 -15 2 0
12 21 22 46 11 30 31 55 58 75 36 26 48 29 109 28 37 -1 68 -5 68 -9z m-915
-57 c62 -34 92 -63 67 -63 -20 0 -142 74 -142 87 0 17 -2 18 75 -24z m600
-533 c16 -16 46 -42 67 -56 43 -30 47 -39 18 -47 -11 -3 -20 -9 -20 -14 1 -9
100 -127 260 -310 58 -65 143 -163 189 -216 76 -88 111 -115 111 -87 0 6 7 10
15 10 12 0 15 -15 15 -74 l0 -74 -64 31 c-62 31 -80 51 -53 60 23 7 -11 34
-141 110 -238 138 -313 179 -319 174 -3 -3 0 -29 7 -57 17 -71 6 -73 -20 -3
-18 48 -22 85 -26 218 -5 172 -8 195 -29 195 -7 0 -16 -8 -20 -17 -6 -16 -8
-16 -15 3 -13 34 -24 184 -13 184 5 0 22 -13 38 -30z m160 -160 c21 -22 36
-42 34 -45 -3 -2 -25 16 -49 40 -24 25 -40 45 -34 45 5 0 27 -18 49 -40z m293
-192 c82 -46 189 -115 196 -127 14 -22 -16 -21 -46 2 -18 14 -72 48 -119 75
-126 74 -154 118 -31 50z m30 -103 c45 -26 82 -49 82 -51 0 -8 -54 8 -90 27
-34 17 -90 64 -90 75 0 3 3 3 8 1 4 -2 44 -26 90 -52z m83 -90 c51 -26 81 -55
57 -55 -14 0 -109 55 -160 92 -22 17 -21 17 17 2 22 -9 61 -27 86 -39z"/>
<path d="M5810 8759 c0 -4 -48 -145 -106 -315 -98 -287 -214 -674 -214 -714 0
-10 7 -23 15 -30 21 -17 19 -30 -4 -30 -11 0 -22 -8 -25 -17 -9 -29 -36 -163
-36 -178 0 -15 56 -49 260 -160 69 -37 145 -79 169 -93 l44 -24 -6 223 c-4
123 -10 452 -13 731 -7 471 -8 509 -25 527 -10 11 -28 34 -39 53 -11 18 -20
30 -20 27z m-117 -771 c9 -5 17 -15 17 -23 0 -32 -34 -165 -42 -165 -19 0 -21
36 -5 96 21 79 22 74 -12 74 -27 0 -47 20 -34 34 7 6 49 -2 76 -16z m-109
-104 c3 -9 6 -25 6 -37 -1 -22 -1 -22 -20 2 -11 13 -20 29 -20 37 0 19 26 18
34 -2z m210 -8 c8 -14 8 -20 -1 -23 -7 -3 -13 -16 -13 -29 0 -17 -4 -23 -12
-19 -7 4 -1 -3 15 -15 15 -12 27 -28 27 -36 0 -12 -5 -12 -31 2 -27 14 -30 19
-25 46 3 17 6 46 6 65 0 37 15 41 34 9z m64 -56 c11 -17 10 -20 -7 -20 -22 0
-35 15 -26 30 9 15 19 12 33 -10z"/>
<path d="M4974 7011 c0 -401 3 -508 13 -504 11 4 64 83 133 197 23 38 23 39 4
53 -18 13 -17 15 18 46 45 40 52 54 122 251 l57 159 -53 55 c-48 49 -282 252
-290 252 -3 0 -4 -229 -4 -509z"/>
<path d="M5405 7373 c-9 -32 -23 -78 -31 -103 -13 -41 -13 -47 3 -67 10 -12
43 -52 74 -90 78 -94 156 -209 169 -249 l11 -34 52 26 c66 34 64 31 37 56 -14
14 -19 23 -12 26 15 5 103 -50 99 -62 -1 -4 -27 -18 -57 -31 -150 -61 -723
-355 -753 -385 -10 -9 46 -43 268 -165 160 -88 349 -192 533 -295 62 -34 116
-59 120 -55 4 3 8 99 8 211 l2 205 -37 37 c-88 91 -114 122 -108 129 4 4 39
-24 78 -63 l71 -69 -6 169 c-3 93 -6 200 -6 237 0 64 -2 71 -46 136 -88 128
-339 412 -411 463 l-42 31 -16 -58z m348 -775 c22 -11 21 -16 -3 -69 -11 -24
-20 -54 -20 -66 0 -26 -12 -30 -29 -9 -11 14 1 67 22 93 15 20 0 43 -28 43
-16 0 -25 6 -25 16 0 12 7 14 33 9 17 -4 40 -11 50 -17z m-35 -209 c57 -29 87
-59 59 -59 -17 0 -137 72 -137 82 0 14 16 9 78 -23z m-7 -76 c38 -21 69 -44
69 -50 0 -17 -4 -17 -53 8 -55 28 -97 58 -97 70 0 14 7 12 81 -28z"/>
<path d="M5586 7329 c11 -13 60 -68 107 -123 48 -54 117 -136 154 -182 36 -46
69 -84 73 -84 8 0 6 37 -3 46 -4 4 -7 46 -7 93 l0 86 -78 42 c-263 144 -267
147 -246 122z"/>
<path d="M5326 7133 c-10 -32 -40 -116 -67 -187 l-49 -130 22 -23 c12 -13 20
-24 17 -26 -2 -1 -20 -10 -40 -19 -27 -12 -47 -36 -91 -109 -31 -52 -55 -95
-53 -97 1 -1 62 30 136 69 74 39 197 103 274 141 77 38 139 74 137 79 -10 38
-237 349 -261 357 -4 1 -15 -24 -25 -55z m90 -185 c32 -17 61 -33 63 -34 2 -2
-11 -17 -29 -35 l-31 -32 -37 17 c-28 14 -33 20 -21 27 8 5 25 9 39 9 23 1 22
3 -20 40 -54 48 -43 51 36 8z"/>
<path d="M6255 7078 l-38 -35 54 -30 c61 -35 378 -204 452 -242 26 -13 49 -22
51 -20 3 3 -119 268 -128 276 -11 12 -244 75 -292 80 -60 5 -62 5 -99 -29z"/>
<path d="M5954 6706 c3 -77 6 -185 6 -240 l1 -101 125 -135 c260 -279 564
-650 564 -688 0 -9 -66 65 -122 138 -70 90 -282 336 -402 465 -61 66 -123 136
-138 155 l-27 35 -1 -212 0 -212 93 -55 c127 -75 402 -228 517 -289 52 -27
106 -57 120 -67 14 -9 30 -20 37 -24 6 -3 -7 26 -29 66 -22 40 -92 170 -155
288 -229 427 -323 593 -470 823 -64 100 -118 184 -121 187 -3 3 -2 -58 2 -134z"/>
<path d="M6313 8452 l-30 -37 38 -17 39 -17 0 55 c0 30 -4 54 -8 54 -5 0 -22
-17 -39 -38z"/>
<path d="M5290 7813 c0 -38 10 -73 21 -73 10 0 12 60 3 84 -10 25 -24 18 -24
-11z"/>
<path d="M6250 7491 c0 -21 5 -31 16 -31 11 0 14 8 12 27 -4 39 -28 42 -28 4z"/>
<path d="M6520 7477 c0 -49 5 -80 15 -93 13 -17 14 -13 15 51 0 39 -3 80 -6
93 -12 45 -24 20 -24 -51z"/>
<path d="M7330 7167 c-96 -46 -193 -93 -214 -104 l-39 -20 57 -37 c31 -20 130
-76 219 -125 89 -49 234 -130 322 -180 88 -50 161 -86 163 -81 5 15 -314 630
-327 630 -4 0 -85 -37 -181 -83z m142 -179 c56 -31 78 -52 65 -64 -12 -12
-137 67 -137 87 0 14 6 12 72 -23z m-29 -54 c66 -33 119 -84 89 -84 -16 0
-132 79 -132 90 0 14 6 13 43 -6z"/>
<path d="M7393 6499 c-18 -3 -40 -12 -49 -20 -19 -15 -54 -82 -54 -103 0 -8
51 -43 113 -79 225 -129 292 -166 295 -162 10 10 -25 129 -55 187 -42 80 -131
169 -145 144 -5 -9 -2 -28 8 -49 23 -47 14 -71 -21 -55 -29 13 -29 13 -13 72
9 35 9 48 -1 60 -13 15 -25 16 -78 5z"/>
<path d="M7287 6288 c12 -103 65 -210 136 -274 27 -24 53 -44 58 -44 14 0 10
52 -6 80 -20 35 -19 60 4 60 34 0 42 -22 30 -79 -6 -29 -8 -58 -5 -66 8 -22
84 -19 124 5 30 18 71 85 72 116 0 6 -51 40 -112 74 -62 34 -153 85 -203 113
-49 27 -93 52 -97 54 -3 1 -4 -16 -1 -39z"/>
<path d="M7257 5623 c3 -65 10 -123 15 -130 9 -12 128 -83 305 -182 51 -29 95
-56 98 -62 4 -5 11 -9 16 -9 6 0 0 13 -13 29 -40 49 -419 471 -423 471 -2 0
-2 -53 2 -117z m50 30 c7 -10 18 -26 24 -37 17 -28 -6 -11 -31 24 -23 32 -17
42 7 13z m73 -103 c30 -43 18 -37 -16 7 -15 20 -23 33 -16 29 6 -3 21 -20 32
-36z m60 -75 c19 -19 32 -35 29 -35 -3 0 -20 16 -39 35 -19 19 -32 35 -29 35
3 0 20 -16 39 -35z"/>
<path d="M6365 5280 c-112 -45 -3 -300 128 -300 37 0 77 43 77 82 0 81 -56
173 -126 208 -44 22 -49 23 -79 10z"/>
<path d="M6522 9654 c-21 -15 -22 -21 -22 -173 0 -150 1 -158 23 -179 12 -11
110 -69 217 -128 107 -58 326 -180 486 -270 170 -96 302 -164 317 -164 16 0
30 8 37 19 5 11 10 83 10 163 0 111 -3 148 -15 165 -16 23 -17 23 -550 320
-192 107 -370 207 -395 223 -61 38 -82 43 -108 24z m227 -128 c102 -57 263
-146 356 -198 352 -195 443 -251 449 -272 8 -28 8 -250 0 -270 -8 -21 -30 -20
-63 3 -14 10 -67 41 -116 69 -603 332 -811 450 -830 469 -12 11 -15 43 -15
143 0 131 4 160 23 160 5 0 94 -47 196 -104z"/>
<path d="M6816 9324 c-11 -29 14 -52 126 -115 224 -125 258 -136 258 -84 0 18
-11 31 -40 50 -22 14 -43 25 -47 25 -5 0 -61 32 -127 70 -119 71 -159 83 -170
54z m94 -27 c19 -13 86 -52 148 -86 61 -35 112 -69 112 -77 0 -11 -9 -10 -42
7 -115 57 -278 154 -278 166 0 19 21 16 60 -10z"/>
<path d="M3378 9500 l-23 -18 3 -324 c1 -213 6 -330 13 -345 7 -12 39 -36 73
-54 33 -17 217 -117 407 -220 190 -104 353 -189 361 -189 36 0 38 16 38 363
l0 339 -29 26 c-16 15 -60 43 -97 61 -38 19 -163 87 -279 151 -115 64 -235
130 -265 147 -30 17 -71 40 -90 51 -51 30 -85 34 -112 12z m147 -71 c50 -28
128 -71 175 -96 47 -25 121 -66 165 -91 130 -74 237 -132 278 -148 37 -16 49
-34 23 -34 -8 0 -61 -20 -118 -44 -56 -24 -133 -54 -169 -67 l-67 -23 -26 31
c-14 17 -38 44 -53 60 -16 17 -57 63 -93 103 -36 40 -72 80 -80 89 -28 28
-146 175 -164 203 -14 21 -15 31 -6 47 16 31 35 26 135 -30z m56 -289 c75 -85
146 -164 158 -174 27 -25 27 -30 -6 -45 -63 -29 -288 -111 -304 -111 -10 0
-23 8 -28 18 -5 10 -10 123 -11 253 -2 318 -5 291 28 249 15 -19 88 -105 163
-190z m639 -365 c0 -146 -2 -265 -4 -265 -12 0 -238 432 -230 440 14 13 197
88 217 89 16 1 17 -18 17 -264z m-145 -75 c138 -255 150 -282 141 -306 -5 -13
-14 -11 -59 14 -46 26 -177 98 -442 242 -44 25 -114 62 -155 85 -41 22 -74 44
-73 49 1 5 53 28 115 51 62 23 127 49 143 58 21 10 36 12 47 6 12 -7 35 -3 74
10 31 11 59 23 62 26 3 3 8 5 11 5 3 0 65 -108 136 -240z"/>
<path d="M7552 9435 c-16 -42 -52 -72 -98 -81 -19 -3 -34 -9 -34 -13 0 -4 20
-22 44 -39 49 -35 86 -87 86 -121 0 -14 6 -21 20 -21 13 0 25 14 39 45 17 39
25 46 65 57 55 14 58 29 12 46 -44 16 -66 42 -87 104 -9 29 -21 54 -26 55 -5
2 -15 -12 -21 -32z m81 -117 l32 -26 -28 -13 c-16 -7 -37 -29 -47 -48 l-18
-35 -21 42 c-12 23 -35 51 -51 63 l-30 22 30 18 c16 10 37 30 46 44 l17 26 19
-33 c11 -18 34 -45 51 -60z"/>
<path d="M8390 9240 c-91 -55 -208 -124 -260 -154 -123 -70 -134 -82 -131
-147 2 -68 -6 -91 -28 -84 -22 7 -34 -8 -51 -59 -9 -28 -21 -42 -41 -50 -35
-13 -36 -16 -3 -73 15 -24 27 -61 28 -81 1 -34 3 -37 39 -43 21 -3 43 -11 50
-18 19 -19 32 -13 44 20 l12 31 53 -29 c29 -17 103 -58 165 -93 l112 -62 63
35 c302 169 408 229 441 251 l37 26 0 209 c0 193 -1 210 -20 234 -24 30 -298
187 -326 186 -10 0 -93 -45 -184 -99z m304 8 c61 -35 125 -70 141 -79 17 -9
30 -24 30 -34 0 -18 -89 -73 -355 -222 -63 -36 -128 -73 -145 -83 l-30 -18
-85 48 c-47 26 -116 64 -154 85 -56 30 -66 39 -55 49 8 7 70 46 139 86 244
143 395 230 399 230 2 0 54 -28 115 -62z m196 -336 c0 -205 8 -186 -105 -248
-38 -21 -144 -80 -234 -131 -89 -51 -168 -93 -174 -93 -13 0 -119 58 -216 118
-67 41 -72 47 -55 59 10 7 23 13 28 13 6 0 51 -25 101 -55 49 -30 95 -55 102
-55 10 0 13 31 13 129 l0 130 28 19 c15 10 63 39 107 64 290 163 371 210 380
219 5 5 13 9 17 9 4 0 8 -80 8 -178z m-817 14 c18 -13 52 -34 77 -46 25 -12
73 -38 107 -58 l63 -37 0 -113 c0 -88 -3 -112 -12 -106 -76 45 -138 88 -138
95 0 5 7 12 15 15 23 9 19 20 -35 76 l-50 52 -34 -33 c-33 -32 -33 -32 -37 -9
-5 31 1 188 7 188 3 0 20 -11 37 -24z m-89 -122 c3 -9 6 -33 6 -54 0 -21 4
-42 10 -45 9 -5 44 10 82 38 15 10 23 7 49 -20 l31 -31 -58 -37 c-33 -20 -68
-47 -79 -61 -17 -19 -25 -22 -50 -16 -23 6 -31 16 -36 41 -4 18 -17 44 -30 57
l-24 26 27 19 c16 12 32 37 38 60 11 41 24 50 34 23z"/>
<path d="M8381 9120 c-181 -109 -196 -120 -164 -120 25 0 345 190 351 208 8
24 -26 8 -187 -88z"/>
<path d="M2335 9274 c-92 -38 -221 -87 -495 -189 -65 -24 -50 -39 75 -76 63
-19 114 -37 112 -40 -1 -3 -40 -47 -86 -97 -67 -73 -95 -96 -135 -111 -28 -10
-80 -32 -116 -49 -36 -16 -85 -39 -110 -50 -25 -11 -81 -37 -125 -57 -44 -20
-113 -50 -153 -66 -99 -40 -192 -87 -192 -99 0 -13 10 -17 65 -24 28 -3 64 -8
80 -10 17 -2 57 -7 90 -11 33 -3 87 -12 120 -18 l59 -12 44 -75 c23 -41 47
-82 51 -90 14 -22 31 -2 122 143 77 123 227 351 339 512 26 39 54 70 61 70 7
0 22 -29 33 -65 15 -47 26 -65 38 -65 11 0 63 72 153 214 163 255 173 274 155
296 -20 25 -68 17 -185 -31z m145 4 c-1 -22 -39 -98 -49 -98 -5 0 -13 -10 -16
-21 -8 -25 -75 -141 -85 -149 -4 -3 -15 -21 -25 -40 -10 -19 -21 -37 -24 -40
-4 -3 -17 -22 -30 -42 -12 -21 -26 -38 -30 -38 -4 0 -20 36 -35 80 -34 95 -50
111 -146 136 -38 10 -70 21 -70 24 0 3 30 17 67 31 36 13 145 56 242 95 189
77 201 81 201 62z m-484 -234 c53 -15 72 -28 56 -38 -7 -4 -141 39 -151 50
-10 9 45 3 95 -12z m114 -79 c-40 -64 -172 -256 -186 -270 -9 -9 -14 -18 -11
-21 3 -3 -2 -14 -11 -23 -26 -27 -47 -62 -44 -72 1 -5 -3 -9 -8 -9 -6 0 -18
-17 -28 -37 -9 -21 -25 -45 -35 -54 -10 -10 -16 -21 -15 -27 2 -5 -7 -19 -20
-30 -13 -11 -23 -23 -23 -26 3 -21 0 -26 -11 -20 -7 5 -9 2 -6 -8 4 -8 -2 -21
-12 -28 -11 -8 -17 -17 -14 -22 3 -4 1 -8 -4 -8 -4 0 -16 -16 -25 -35 -20 -42
-29 -44 -44 -7 -6 15 -24 49 -39 75 -26 44 -27 50 -13 72 13 22 138 157 355
384 56 58 121 129 145 157 27 32 48 48 54 42 6 -6 4 -17 -5 -33z m-388 -329
c-89 -89 -92 -93 -84 -100 3 -4 -2 -4 -12 0 -14 5 -17 4 -12 -4 4 -7 2 -12 -3
-12 -6 0 -11 -7 -11 -15 0 -8 -7 -15 -16 -15 -8 0 -13 -3 -11 -7 7 -11 -19
-33 -29 -25 -4 4 -4 -1 -1 -10 3 -10 1 -20 -5 -24 -7 -4 -8 -3 -4 4 11 18 -5
14 -19 -4 -11 -15 -23 -15 -156 1 -79 9 -151 19 -159 21 -8 3 51 34 132 69
146 63 400 178 428 194 37 21 17 -16 -38 -73z"/>
<path d="M2780 9034 c-47 -20 -77 -50 -90 -90 -6 -18 -16 -31 -23 -28 -21 7
-78 -35 -92 -70 -19 -45 -12 -153 14 -211 22 -49 69 -121 105 -160 21 -22 22
-30 15 -70 -13 -67 -22 -80 -91 -115 -96 -50 -145 -89 -183 -145 -35 -54 -70
-150 -81 -225 -3 -25 -12 -88 -19 -140 -8 -52 -10 -100 -6 -108 4 -7 5 -34 1
-60 -3 -26 -5 -90 -4 -144 1 -81 5 -103 25 -139 28 -49 86 -83 158 -93 l46 -6
-1 -43 c-2 -40 -9 -110 -19 -187 -12 -95 -17 -138 -20 -165 -3 -37 -15 -157
-20 -205 -3 -19 -7 -73 -10 -120 -3 -47 -7 -105 -10 -130 -3 -25 -7 -66 -10
-92 -3 -26 -25 -93 -50 -149 -73 -165 -79 -213 -71 -569 4 -168 9 -343 10
-390 2 -47 0 -106 -4 -130 -10 -69 4 -93 90 -160 96 -73 172 -110 240 -115 42
-3 56 1 80 22 33 27 39 65 16 99 -8 11 -55 60 -106 109 -50 50 -96 97 -100
106 -8 14 4 122 40 364 6 39 13 90 16 115 13 121 56 366 78 454 42 165 145
490 152 483 11 -11 3 -212 -12 -297 -19 -110 -15 -196 16 -346 12 -55 22 -112
25 -129 7 -57 37 -220 49 -276 8 -33 11 -85 8 -127 l-5 -71 54 -34 c50 -32
198 -105 244 -122 74 -25 168 -6 184 38 9 25 -1 71 -21 90 -7 7 -58 46 -112
87 -55 41 -106 81 -114 87 -18 15 -20 58 -22 463 0 151 4 309 10 350 5 41 13
93 15 115 3 22 7 56 10 75 3 19 8 94 11 165 4 72 8 139 9 150 1 11 3 135 4
277 l1 256 58 44 c32 23 81 62 108 85 46 39 187 154 209 171 6 4 23 17 38 29
16 12 35 19 43 16 49 -19 212 66 259 135 20 30 45 45 142 87 144 62 160 70
173 95 8 15 6 24 -10 40 -26 26 -26 25 -198 -51 -135 -60 -162 -68 -162 -47 0
6 -6 4 -13 -7 -10 -13 -16 -15 -21 -6 -4 6 -12 9 -17 6 -5 -4 -9 -1 -9 4 0 6
-15 11 -34 11 -24 0 -77 -22 -163 -68 -123 -65 -130 -67 -147 -50 -10 9 -40
24 -67 33 -26 9 -52 21 -57 28 -5 7 -18 44 -29 82 -64 221 -97 324 -114 357
-23 45 -76 96 -107 104 -16 5 -21 11 -17 23 22 55 35 137 35 212 l0 87 35 26
c68 52 94 151 61 231 -22 52 -53 67 -123 60 -46 -6 -74 -2 -127 14 -80 25
-128 26 -176 5z m139 -334 c10 -5 48 -10 84 -12 64 -2 66 -3 73 -31 9 -45 -6
-175 -26 -223 -34 -78 -90 -89 -192 -38 -27 14 -48 20 -48 14 0 -21 48 -59 90
-71 34 -10 46 -20 57 -47 25 -61 -8 -104 -84 -107 -57 -2 -131 31 -156 69 -16
24 -16 28 2 63 11 21 22 64 26 95 3 32 11 61 17 64 7 4 -2 18 -22 34 -22 18
-32 35 -32 54 0 43 17 54 53 33 44 -25 54 -22 68 23 11 38 14 40 50 40 48 0
56 8 28 31 -24 20 -17 25 12 9z m-264 -440 c-4 -6 -30 -24 -59 -40 -28 -16
-65 -43 -81 -60 -33 -34 -51 -40 -35 -10 13 24 147 120 167 120 8 0 11 -5 8
-10z m630 -358 c18 -62 18 -62 -3 -85 -30 -32 -28 -40 6 -23 25 13 32 11 101
-21 l73 -36 -63 -36 -64 -37 -63 44 c-35 25 -65 50 -67 56 -2 6 -6 47 -8 91
l-5 81 32 21 c17 11 34 18 37 14 3 -3 14 -34 24 -69z m915 53 c0 -7 -84 -48
-195 -94 -121 -51 -156 -67 -217 -98 -27 -13 -48 -19 -48 -14 0 13 73 54 170
95 47 19 126 53 175 75 85 38 115 47 115 36z m-427 -109 c3 -8 -2 -20 -11 -28
-45 -37 -164 -109 -212 -128 -29 -11 -95 -41 -146 -65 -104 -50 -126 -55 -99
-25 26 28 255 162 395 231 66 33 66 33 73 15z m116 -89 c-55 -46 -186 -113
-197 -102 -3 3 -3 6 -1 8 60 48 187 112 198 101 2 -2 2 -6 0 -7z m-629 -87 c0
-5 9 -12 20 -15 11 -3 20 -10 20 -14 0 -13 -55 -37 -77 -33 -21 3 -23 9 -23
58 l0 55 30 -21 c17 -12 30 -25 30 -30z m375 -7 c-54 -47 -363 -294 -400 -320
-42 -28 -358 -162 -368 -156 -11 6 188 196 277 265 34 26 102 66 151 88 50 21
153 68 230 103 77 35 142 62 145 60 3 -3 -13 -21 -35 -40z m-1200 -37 c11 -2
20 -4 20 -5 0 -2 20 -5 45 -7 25 -3 48 -8 52 -12 4 -4 4 -30 0 -57 -7 -49 -8
-50 -45 -53 -51 -4 -47 -22 6 -23 23 -1 44 -1 47 -1 3 0 39 -4 79 -9 57 -7
229 -21 261 -21 41 -1 61 11 131 78 78 74 81 76 121 71 22 -3 48 -13 57 -23
17 -18 19 -18 -56 2 -31 8 -29 -12 2 -29 l26 -13 -46 -33 c-25 -18 -82 -67
-127 -109 -46 -43 -96 -83 -112 -90 -40 -18 -151 -27 -289 -25 -102 1 -125 5
-165 25 -75 37 -87 76 -83 287 l1 63 28 -6 c15 -4 36 -8 47 -10z"/>
<path d="M8815 8463 c-175 -37 -298 -160 -343 -345 -15 -61 -9 -228 12 -303
66 -242 265 -469 482 -551 246 -92 516 29 607 274 28 76 30 263 3 367 -97 376
-439 626 -761 558z m233 -38 c233 -55 427 -262 493 -525 21 -86 34 -230 22
-246 -4 -6 -26 -23 -49 -37 l-41 -25 -6 96 c-8 125 -13 153 -45 232 -37 94
-99 186 -178 261 -120 114 -220 161 -347 160 -123 0 -252 -82 -299 -189 -29
-65 -35 -197 -14 -282 61 -246 264 -456 481 -500 58 -12 114 -5 195 24 17 6
64 -60 56 -79 -6 -17 -88 -43 -150 -49 -116 -11 -279 53 -398 155 -285 248
-361 684 -155 897 45 46 133 97 195 111 59 14 171 12 240 -4z m-55 -124 c16
-1 17 -18 17 -211 l0 -210 121 -215 c68 -120 119 -221 116 -229 -9 -22 -84
-38 -157 -34 -150 9 -325 145 -418 326 -79 152 -93 304 -38 416 53 108 186
183 296 165 25 -4 53 -8 63 -8z m117 -52 c80 -46 198 -170 242 -254 40 -78 78
-192 78 -236 0 -16 -2 -29 -3 -29 -2 0 -89 41 -193 90 l-189 90 -2 185 c-2
102 0 185 5 185 4 0 32 -14 62 -31z"/>
<path d="M1127 8164 c-20 -7 -82 -38 -137 -69 -156 -87 -196 -149 -204 -315
-2 -47 -4 -91 -5 -97 -1 -7 -13 -19 -28 -27 -113 -60 -190 -204 -208 -391 -3
-33 -10 -87 -15 -120 -5 -33 -16 -118 -25 -190 -9 -71 -18 -141 -20 -155 -2
-14 -9 -61 -15 -105 -6 -44 -13 -91 -15 -105 -11 -70 -25 -182 -30 -240 -4
-36 -20 -157 -35 -270 -30 -217 -43 -326 -45 -375 -2 -81 52 -188 118 -231 68
-45 384 -215 420 -226 30 -9 46 -9 75 2 39 13 899 493 966 539 22 14 48 43 59
64 18 35 18 45 8 160 -7 67 -14 138 -16 157 -3 19 -7 69 -10 110 -3 41 -7 95
-10 120 -38 386 -48 486 -60 605 -8 77 -22 201 -30 275 -8 74 -22 205 -31 290
-9 85 -23 172 -30 193 -14 41 -62 107 -104 144 -45 40 -169 86 -240 89 -64 3
-65 3 -73 35 -19 72 -65 109 -163 132 -49 12 -65 12 -97 1z m149 -55 c23 -11
49 -28 59 -39 22 -24 35 -89 28 -140 -5 -33 -10 -40 -46 -54 -22 -9 -41 -15
-43 -13 -1 1 -5 18 -8 37 -6 31 -5 33 7 18 12 -15 14 -11 14 37 0 40 -4 55
-14 55 -11 0 -261 -139 -322 -179 -10 -6 -13 -30 -12 -85 2 -69 -1 -78 -23
-101 -30 -30 -57 -32 -81 -5 -15 17 -17 34 -13 128 4 93 8 118 31 163 31 62
59 84 201 158 109 58 137 60 222 20z m4 -149 c0 -5 -4 -10 -10 -10 -5 0 -10 5
-10 10 0 6 5 10 10 10 6 0 10 -4 10 -10z m-48 -37 c4 -70 2 -72 -107 -129 -38
-20 -89 -47 -111 -61 l-42 -24 -4 35 c-2 19 -1 42 2 51 5 15 229 151 253 154
4 1 8 -11 9 -26z m389 -8 c60 -21 104 -65 66 -65 -7 0 -69 -32 -137 -71 -69
-39 -150 -84 -180 -101 -231 -129 -321 -178 -359 -198 -60 -30 -132 -100 -159
-153 -25 -51 -44 -137 -38 -176 3 -14 7 -82 11 -151 3 -69 8 -138 10 -155 2
-16 7 -77 10 -135 4 -58 8 -123 10 -145 2 -22 7 -76 10 -120 3 -44 8 -102 10
-130 3 -27 7 -88 10 -135 8 -129 25 -387 30 -455 2 -33 7 -102 11 -152 5 -72
10 -93 21 -93 14 0 14 85 -2 275 -10 126 -16 206 -20 280 -5 74 -18 279 -31
455 -3 41 -7 93 -10 115 -2 22 -7 83 -10 135 -3 52 -7 111 -9 130 -2 19 -7
107 -11 196 -6 139 -5 167 11 214 31 93 73 124 460 340 192 107 361 196 375
198 33 5 69 -33 81 -85 5 -21 16 -103 24 -183 8 -80 17 -159 20 -176 2 -17 11
-105 20 -195 8 -90 17 -186 20 -214 4 -46 31 -293 40 -375 7 -60 24 -242 30
-315 11 -138 16 -197 20 -228 7 -57 8 -162 1 -184 -8 -26 -47 -51 -306 -195
-352 -196 -482 -269 -575 -323 -131 -75 -145 -79 -208 -54 -29 11 -56 24 -62
28 -5 5 -35 22 -65 38 -182 98 -219 119 -257 145 -24 16 -55 50 -70 76 -25 42
-28 57 -28 132 0 47 8 146 18 220 18 135 21 162 32 255 3 28 7 61 10 75 2 14
7 48 10 75 4 28 9 63 11 80 2 16 13 99 25 185 11 85 22 169 24 185 3 17 7 55
10 85 3 30 8 65 11 77 2 12 6 44 9 70 3 27 7 57 9 68 2 11 7 50 11 88 l7 67
34 -20 c18 -12 48 -28 65 -37 l32 -16 -7 -206 c-3 -113 -8 -226 -11 -251 -3
-25 -9 -128 -15 -230 -6 -102 -13 -213 -16 -247 -5 -54 -4 -63 10 -63 12 0 16
10 17 38 1 36 3 69 13 202 3 36 8 106 11 155 3 50 8 113 10 140 3 28 7 176 10
330 4 154 11 303 17 330 13 61 48 130 87 172 67 71 239 180 513 322 151 78
192 86 279 56z"/>
<path d="M1475 7631 c-27 -15 -137 -77 -242 -136 -106 -60 -193 -115 -193
-122 0 -7 2 -13 3 -13 2 0 58 31 125 69 67 38 178 99 247 136 70 38 125 73
125 81 0 19 -8 18 -65 -15z"/>
<path d="M1585 7571 c-109 -58 -503 -279 -599 -335 -63 -37 -93 -66 -68 -66 6
0 166 88 356 195 190 107 364 204 386 215 39 20 53 40 28 40 -7 0 -53 -22
-103 -49z"/>
<path d="M1691 7551 c-8 -6 -11 -19 -7 -37 3 -16 8 -86 11 -155 4 -98 3 -128
-7 -131 -14 -5 -31 -4 -186 6 l-102 7 -218 -147 c-267 -181 -261 -177 -262
-187 0 -5 47 -7 105 -5 58 2 105 0 105 -3 0 -3 -17 -30 -39 -60 -74 -104 -105
-189 -117 -320 -13 -146 26 -282 107 -372 97 -109 200 -138 329 -93 41 15 80
28 85 29 6 1 31 15 56 29 122 71 213 222 249 408 24 120 6 280 -40 357 -18 30
-18 32 0 48 25 23 28 58 14 170 -7 53 -10 103 -7 111 3 8 0 20 -6 28 -10 12
-27 149 -33 270 -3 50 -12 62 -37 47z m16 -475 l2 -115 -52 40 c-29 21 -73 46
-99 56 -27 9 -48 19 -48 22 1 8 173 111 185 111 6 0 11 -46 12 -114z m-139
-53 c71 -36 154 -127 183 -200 29 -75 32 -253 6 -353 -29 -111 -88 -218 -165
-298 -38 -40 -74 -72 -81 -72 -6 0 17 29 51 65 105 108 169 236 185 367 5 42
4 46 -13 42 -14 -4 -27 -30 -48 -95 -67 -212 -200 -339 -356 -339 -113 0 -177
46 -228 162 -14 32 -20 41 -17 23 22 -106 103 -211 191 -245 41 -16 45 -19 21
-20 -100 -1 -209 119 -236 261 -31 170 34 383 159 519 l42 45 -36 -53 c-20
-28 -36 -56 -36 -61 0 -4 30 21 68 58 90 88 174 132 264 139 37 2 68 8 68 12
0 13 -78 40 -115 40 -57 0 -40 25 20 29 11 0 44 -11 73 -26z"/>
<path d="M1142 6695 c-30 -62 -27 -71 4 -12 14 27 24 51 22 53 -3 2 -14 -17
-26 -41z"/>
<path d="M1257 6706 c-3 -8 25 -48 70 -96 l76 -81 -51 -124 c-46 -113 -51
-135 -32 -135 6 0 54 102 92 195 12 29 12 29 22 -37 6 -49 13 -68 24 -68 12 0
14 12 9 68 -4 37 -7 79 -7 95 0 16 -5 27 -14 27 -13 0 -122 106 -138 135 -14
24 -45 37 -51 21z"/>
<path d="M1710 6131 c-19 -10 -71 -38 -115 -63 -44 -25 -170 -95 -279 -156
-109 -61 -201 -114 -204 -117 -3 -3 -1 -10 4 -15 6 -6 49 14 114 51 58 33 148
83 200 112 52 28 107 58 121 67 14 8 69 39 122 68 90 50 116 72 84 72 -7 0
-28 -8 -47 -19z"/>
<path d="M1530 5939 c-129 -73 -273 -152 -320 -178 -50 -27 -86 -54 -88 -64
-3 -17 0 -16 40 4 23 12 96 53 161 90 65 38 120 69 122 69 2 0 50 26 107 59
57 32 131 73 166 91 34 17 62 38 62 46 0 8 -3 14 -7 14 -5 0 -114 -59 -243
-131z"/>
<path d="M1815 5959 c-179 -92 -425 -234 -422 -243 3 -6 9 -10 14 -9 5 1 86
45 180 97 94 52 196 107 227 123 31 15 56 33 56 40 0 17 -7 16 -55 -8z"/>
<path d="M1765 5842 c-347 -190 -365 -201 -365 -218 0 -19 1 -18 57 15 26 15
95 54 153 86 58 32 130 73 160 91 31 18 68 38 83 43 26 10 35 25 20 34 -5 2
-53 -21 -108 -51z"/>
<path d="M3656 7028 c-50 -157 -54 -184 -50 -280 2 -54 2 -98 0 -98 -3 0 -12
24 -20 53 -18 63 -108 192 -133 192 -15 0 -17 -10 -15 -85 4 -97 13 -141 50
-225 26 -59 27 -66 34 -340 3 -154 8 -323 10 -375 3 -58 -1 -114 -9 -145 -16
-63 -16 -103 0 -135 25 -49 114 -91 196 -92 57 -1 148 29 182 60 27 25 30 33
31 92 0 36 -5 77 -10 92 -7 16 -9 69 -6 135 3 59 6 245 8 413 1 189 7 338 15
393 18 119 7 277 -18 277 -11 0 -25 -15 -36 -39 -10 -22 -28 -50 -41 -62 l-23
-21 -16 58 c-27 99 -36 116 -51 103 -7 -6 -16 -26 -20 -45 -8 -44 -20 -36 -28
21 -5 30 -14 49 -27 55 -14 8 -20 8 -23 -2z m34 -129 c0 -22 -12 -30 -29 -20
-9 6 -11 19 -6 42 7 31 8 32 21 14 8 -10 14 -27 14 -36z m90 -61 c0 -31 -12
-42 -40 -33 -26 8 -25 33 2 62 25 26 38 17 38 -29z m118 -19 c-27 -18 -38 -11
-27 18 6 15 16 34 22 42 10 12 13 9 15 -19 2 -20 -2 -36 -10 -41z m-225 -34
c-1 -33 -3 -114 -4 -180 -2 -173 -21 -114 -27 88 -4 151 -4 159 14 155 16 -3
19 -12 17 -63z m-165 3 c19 -19 14 -28 -13 -28 -27 0 -28 1 -19 24 7 19 16 20
32 4z m286 -197 c-3 -80 -9 -149 -13 -153 -3 -4 -22 -9 -41 -10 l-34 -3 -1
160 c-1 177 1 199 21 191 8 -3 24 -2 36 3 33 12 38 -17 32 -188z m102 189 c27
0 27 8 -1 -157 -14 -82 -46 -173 -62 -173 -8 0 -6 304 2 329 3 7 12 10 21 7 9
-3 26 -6 40 -6z m-342 -82 c8 -24 29 -86 47 -138 17 -52 34 -101 36 -107 8
-21 -24 -15 -53 10 -25 22 -54 85 -90 197 -14 43 -14 45 8 62 32 24 34 23 52
-24z m63 -80 c-3 -8 -6 -5 -6 6 -1 11 2 17 5 13 3 -3 4 -12 1 -19z m43 -329
c17 -5 19 -8 7 -8 -18 -1 -97 35 -97 44 0 3 15 -2 32 -11 18 -9 44 -20 58 -25z
m4 -128 c-5 -5 -93 29 -99 38 -2 5 20 -1 49 -13 30 -12 52 -23 50 -25z m64 -8
c-10 -2 -26 -2 -35 0 -10 3 -2 5 17 5 19 0 27 -2 18 -5z m-32 -140 c-5 -5
-115 37 -120 46 -3 4 24 -3 59 -17 36 -14 63 -27 61 -29z m-41 -98 c58 -14
135 -9 183 11 32 13 33 13 30 -8 -2 -17 -16 -26 -63 -40 -76 -23 -85 -22 -167
3 -54 17 -68 26 -68 41 0 15 4 18 18 13 9 -4 40 -13 67 -20z m3 -75 c61 -19
145 -12 188 16 32 22 31 1 -1 -25 -40 -31 -114 -43 -173 -27 -28 7 -62 20 -76
30 -29 19 -36 42 -8 31 9 -4 41 -15 70 -25z m-43 -61 c58 -26 170 -24 224 4
19 9 36 17 38 17 5 0 3 -94 -3 -118 -14 -52 -135 -83 -223 -56 -68 20 -93 53
-89 120 2 30 3 54 4 54 1 0 23 -9 49 -21z"/>
<path d="M8691 6890 c-56 -28 -60 -46 -61 -241 0 -154 2 -179 18 -198 9 -11
66 -45 125 -75 86 -43 113 -62 133 -93 14 -21 48 -53 76 -72 l51 -33 55 28
c30 16 68 41 84 57 29 26 30 28 14 52 -13 20 -17 57 -19 189 -2 132 -5 168
-17 180 -18 18 -353 198 -396 213 -24 8 -37 7 -63 -7z m83 -29 c-2 -2 69 -42
158 -89 90 -46 171 -92 182 -102 16 -15 19 -39 23 -181 3 -90 9 -168 14 -173
16 -18 9 -35 -20 -51 -29 -15 -31 -14 -56 19 -37 49 -43 80 -44 227 -1 72 -4
135 -7 140 -16 27 -21 -16 -19 -155 2 -117 6 -161 17 -178 49 -76 47 -72 33
-91 -13 -18 -15 -17 -56 10 -23 15 -55 48 -70 72 -23 36 -41 49 -106 77 -43
19 -96 47 -118 62 l-40 28 -3 172 c-2 172 -2 173 22 197 19 19 34 24 60 23 19
-2 32 -5 30 -7z"/>
<path d="M8751 6711 c-6 -11 -11 -56 -11 -100 0 -80 0 -80 35 -107 47 -36 56
-24 15 22 -30 35 -32 41 -28 96 6 76 15 85 64 60 77 -40 79 -42 84 -138 3 -57
9 -89 18 -92 15 -5 17 143 3 181 -11 28 -92 82 -138 92 -25 5 -34 2 -42 -14z"/>
<path d="M9517 6879 c-26 -20 -29 -20 -46 -5 -22 20 -40 20 -62 0 -14 -13 -21
-13 -37 -3 -17 11 -25 9 -57 -15 -33 -25 -36 -32 -30 -60 27 -129 32 -233 10
-262 -36 -47 -2 -132 68 -169 23 -12 40 -29 43 -45 3 -14 8 -32 10 -40 2 -9
24 -20 50 -26 45 -10 45 -10 61 20 20 41 20 41 36 28 7 -6 25 -15 39 -21 22
-8 32 -6 54 12 19 14 29 17 32 9 6 -20 27 -14 55 16 24 25 26 32 17 56 -18 49
-13 94 15 112 34 22 32 38 -10 75 -39 36 -42 52 -19 97 19 39 10 59 -46 92
-24 14 -47 38 -55 57 -16 38 -55 64 -55 36 0 -32 44 -96 79 -114 51 -27 55
-33 36 -69 -17 -32 -13 -110 5 -110 5 0 21 -5 36 -11 l28 -10 -32 -25 c-35
-28 -39 -52 -21 -118 13 -46 -3 -74 -25 -43 -18 23 -27 22 -51 -9 l-21 -26
-52 15 -52 16 -15 -30 c-24 -46 -45 -36 -81 40 -19 43 -28 52 -46 49 -16 -2
-28 7 -45 31 -27 40 -29 73 -7 92 14 12 16 29 11 120 -4 58 -11 118 -17 134
-15 39 3 59 47 50 18 -3 33 -2 33 3 0 15 51 25 63 13 16 -16 42 -13 81 10 22
13 33 26 29 35 -7 19 -23 17 -56 -7z"/>
<path d="M9427 6719 c-58 -45 -57 -138 2 -221 53 -74 118 -88 173 -39 31 27
33 34 33 93 0 54 -5 72 -28 107 -51 77 -127 102 -180 60z m103 -25 c74 -44
105 -160 55 -209 -36 -37 -71 -32 -116 15 -62 65 -74 146 -27 190 26 24 51 25
88 4z"/>
<path d="M9280 5948 c-14 -5 -49 -12 -78 -14 -70 -5 -113 -29 -193 -106 -51
-50 -68 -73 -79 -113 -24 -81 -18 -136 18 -195 18 -28 32 -54 32 -57 0 -8 -64
-86 -143 -172 -38 -42 -83 -105 -102 -144 l-35 -70 3 -206 c3 -237 15 -287 76
-328 41 -28 73 -29 130 -3 24 11 46 20 50 20 14 0 12 -158 -4 -226 -24 -107
-29 -115 -108 -163 -193 -119 -457 -322 -489 -377 -23 -39 -46 -159 -50 -250
-1 -47 -7 -76 -19 -92 -18 -23 -15 -59 7 -77 7 -6 14 -55 18 -130 7 -134 15
-240 25 -364 8 -95 8 -94 -79 -153 -68 -47 -88 -68 -95 -99 -15 -65 30 -101
124 -100 45 0 72 8 136 41 44 22 93 52 110 65 26 22 30 30 28 72 -7 155 -6
243 0 284 9 54 22 56 79 9 31 -26 35 -36 48 -112 7 -45 14 -93 16 -105 1 -12
5 -34 8 -50 3 -15 8 -54 11 -85 l6 -57 -81 -66 c-88 -73 -100 -89 -100 -132 0
-34 8 -46 38 -62 72 -38 195 -4 322 88 77 56 82 76 45 186 -11 31 -15 75 -13
145 l3 100 120 -70 c66 -39 130 -73 142 -76 25 -7 36 -1 323 168 342 201 342
201 375 253 25 40 30 58 29 106 -1 67 -19 101 -69 130 l-34 20 36 32 c69 61
89 145 53 225 -15 32 -34 52 -85 83 -36 23 -65 43 -65 45 0 1 9 18 19 36 34
58 44 145 38 320 -8 234 -43 382 -122 510 -33 53 -36 63 -33 125 l3 67 38 8
c136 28 217 128 204 253 -10 98 -50 151 -165 220 -92 55 -103 78 -101 225 1
66 -3 134 -11 160 -39 144 -134 233 -275 259 -32 6 -59 11 -59 10 -1 0 -12 -5
-26 -11z m-55 -58 c4 -6 -8 -10 -30 -10 -51 0 -113 -42 -134 -91 -12 -29 -22
-39 -38 -39 -13 0 -23 2 -23 4 0 10 118 129 135 137 28 11 83 11 90 -1z m-91
-318 c36 -39 101 -75 166 -92 25 -6 52 -13 61 -16 9 -3 20 -15 23 -27 l6 -22
19 23 c22 25 43 28 61 8 19 -24 7 -59 -26 -81 -131 -85 -174 -105 -220 -105
-92 0 -136 85 -149 285 -7 106 -6 109 11 85 9 -14 31 -40 48 -58z m-93 -34 c1
-53 7 -100 17 -153 10 -46 9 -51 -17 -81 l-28 -31 -36 34 -37 33 37 53 c21 28
41 55 45 58 5 3 3 20 -3 37 -12 34 -5 82 11 82 6 0 10 -15 11 -32z m-83 -262
c28 -27 34 -37 25 -47 -9 -9 -19 -4 -45 20 -58 54 -68 34 -13 -26 19 -21 35
-41 35 -45 0 -17 -28 -7 -50 17 -25 26 -50 33 -50 13 0 -16 31 -48 47 -48 7 0
13 -7 13 -15 0 -8 -8 -15 -18 -15 -10 0 -23 -5 -30 -12 -7 -7 -12 -9 -12 -5 0
19 -39 -16 -48 -43 -9 -24 -8 -30 3 -30 18 0 22 -14 40 -144 9 -60 18 -120 21
-133 8 -32 26 -29 23 5 -7 92 23 98 32 6 3 -32 9 -84 14 -116 l8 -56 -41 -21
c-23 -12 -56 -21 -75 -21 -72 0 -97 71 -102 290 -4 178 8 259 50 322 33 50
114 138 127 138 4 0 25 -15 46 -34z m141 -3 c12 -26 10 -30 -32 -68 -39 -35
-95 -113 -152 -212 -11 -18 -22 -33 -26 -33 -10 0 -32 87 -24 99 3 6 24 20 46
32 39 19 96 94 120 156 22 59 49 69 68 26z m276 -29 c-8 -27 -15 -61 -15 -76
0 -15 -4 -29 -9 -32 -13 -8 -61 33 -61 52 0 15 90 116 97 108 2 -1 -4 -25 -12
-52z m-123 -71 c19 -40 29 -50 59 -57 32 -8 38 -14 55 -64 31 -91 122 -160
225 -170 l49 -5 0 -61 c0 -33 -5 -92 -11 -131 -6 -38 -12 -86 -15 -105 -2 -19
-9 -50 -15 -69 l-11 -34 -69 7 c-97 9 -121 21 -114 60 3 17 12 74 21 126 8 52
18 105 21 118 4 15 1 22 -10 22 -14 0 -40 -83 -53 -170 -3 -19 -7 -46 -9 -60
-3 -14 -7 -59 -9 -100 -6 -95 -16 -127 -65 -209 -22 -36 -57 -101 -77 -143
-21 -43 -45 -78 -52 -78 -8 0 -50 19 -93 41 -85 44 -134 91 -124 118 24 61 45
176 44 241 -1 71 -5 107 -29 282 -13 94 -2 131 71 243 56 85 69 115 51 115 -8
0 -84 -109 -136 -192 -19 -33 -42 -36 -51 -8 -7 22 18 65 119 209 67 95 103
121 163 121 41 0 44 -2 65 -47z m464 -628 c51 -111 79 -285 79 -490 -1 -182
-15 -227 -95 -306 -61 -60 -177 -136 -188 -124 -4 4 2 12 12 19 58 34 146 109
178 151 48 64 58 108 58 262 0 212 -30 394 -85 509 -14 29 -25 59 -25 66 1 21
41 -32 66 -87z m-213 -97 l58 -11 -7 -31 c-31 -147 -232 -486 -381 -643 -74
-78 -93 -87 -217 -98 -63 -6 -68 -5 -62 11 6 16 5 17 -11 2 -28 -23 -47 -33
-38 -19 5 9 2 9 -13 0 -41 -26 -32 0 18 51 28 29 49 55 46 58 -3 3 -14 -2 -24
-11 -20 -18 -37 -23 -28 -8 13 20 118 60 174 67 43 4 66 13 80 28 26 29 111
173 165 281 25 50 61 117 81 149 20 33 38 75 41 95 3 20 8 51 11 69 5 30 8 33
27 27 12 -4 48 -12 80 -17z m41 -354 c5 -18 0 -26 -28 -44 -37 -22 -111 -40
-105 -24 2 5 26 46 53 92 l50 84 11 -44 c6 -24 15 -53 19 -64z m-635 62 c-8
-7 -72 -53 -144 -101 -174 -118 -318 -229 -360 -278 -19 -22 -35 -35 -35 -28
0 36 232 225 435 355 33 21 71 46 85 56 28 20 42 17 19 -4z m743 -255 c25 -16
49 -34 53 -41 10 -16 -88 35 -104 54 -20 24 0 19 51 -13z m198 -285 c-19 -12
-120 -74 -225 -136 -104 -62 -206 -123 -226 -136 -37 -25 -49 -29 -49 -16 0 4
33 27 73 50 39 24 153 93 252 152 99 60 187 109 195 109 8 1 -1 -10 -20 -23z
m48 -52 c2 -47 -24 -83 -85 -122 -120 -75 -391 -232 -401 -232 -6 0 -12 -6
-15 -12 -3 -10 -7 -10 -19 -1 -12 10 -17 6 -32 -27 -21 -48 -59 -80 -95 -80
-14 0 -53 16 -86 35 -33 19 -99 56 -147 82 -48 26 -88 54 -88 61 0 9 14 5 43
-12 258 -148 285 -160 316 -132 11 10 24 30 31 46 10 23 9 33 -5 54 -20 31
-31 27 -40 -14 -4 -17 -8 -30 -10 -30 -11 0 -316 174 -326 186 -15 18 -3 32
54 63 49 27 32 31 172 -48 42 -24 90 -55 106 -69 17 -13 33 -22 36 -19 15 16
-35 59 -128 112 -57 32 -98 60 -91 63 16 5 155 -71 208 -114 30 -24 44 -44 49
-71 7 -36 8 -37 18 -15 5 12 15 22 21 22 6 0 17 9 24 20 7 11 17 20 22 20 6 0
28 11 51 25 22 14 45 23 51 19 7 -4 8 -3 4 4 -4 6 6 18 24 27 16 8 30 13 30
10 0 -3 10 4 22 15 34 31 109 71 121 63 6 -3 7 -1 3 5 -4 7 12 21 41 36 26 14
62 34 78 45 40 28 42 27 43 -15z m-1235 -4 c-18 -31 -28 -37 -38 -21 -6 10 32
51 47 51 5 0 1 -13 -9 -30z m-44 -157 c0 -38 3 -97 6 -133 l6 -65 -20 24 c-14
16 -19 31 -15 47 3 13 7 57 9 97 3 86 4 97 9 97 2 0 4 -30 5 -67z m1239 -81
c21 -18 21 -19 -41 -59 -34 -22 -147 -91 -252 -153 -104 -63 -219 -131 -254
-152 -36 -21 -71 -38 -79 -38 -9 0 -77 37 -154 82 l-138 81 0 39 c0 35 2 38
19 28 32 -17 34 -11 4 16 l-28 26 35 -21 c22 -13 34 -27 32 -38 -2 -14 -1 -15
6 -5 7 11 24 5 82 -27 39 -23 76 -41 82 -41 6 0 7 -7 4 -16 -5 -13 -3 -14 7
-6 16 14 42 -1 33 -19 -5 -9 -3 -9 6 1 8 9 30 15 55 15 23 0 41 5 40 10 -1 6
4 9 11 7 6 -1 12 3 12 9 0 5 5 7 10 4 6 -3 10 -1 10 5 0 6 4 9 9 6 5 -3 12 1
15 10 4 9 13 14 21 10 8 -3 14 0 12 7 -1 7 6 11 15 11 10 -1 16 2 13 5 -2 4
11 15 29 23 24 12 37 13 52 5 17 -9 17 -9 6 5 -11 14 -6 21 40 51 86 55 162
94 176 90 7 -3 10 1 6 11 -7 17 37 33 57 20 8 -4 9 -3 5 4 -11 19 19 14 42 -6z
m36 -118 c-8 -44 -28 -60 -179 -147 -71 -41 -213 -124 -315 -185 -101 -61
-187 -107 -190 -103 -3 4 -10 10 -15 12 -6 2 -66 35 -133 72 l-122 69 0 63 0
64 73 -43 c39 -24 104 -62 144 -85 l71 -42 88 50 c67 38 91 48 101 39 10 -8
12 -7 7 5 -6 16 8 27 76 64 19 10 46 26 60 35 14 9 32 18 40 20 8 2 23 11 35
21 11 10 36 27 55 38 19 11 63 37 98 59 37 23 70 37 80 34 14 -5 15 -4 2 5
-13 10 -13 12 0 21 20 12 33 -21 24 -66z m-1272 -17 c14 -11 44 -125 35 -133
-2 -2 -20 8 -40 22 -31 21 -37 30 -33 52 2 15 5 37 5 50 1 25 9 27 33 9z m-88
-458 c8 -46 -16 -72 -117 -125 -58 -31 -83 -38 -128 -38 -33 -1 -63 5 -73 13
-23 19 -20 54 7 78 27 24 143 103 152 103 4 0 18 -9 32 -20 34 -27 65 -25 93
5 13 14 24 24 25 22 1 -1 5 -18 9 -38z m405 -185 c5 -19 7 -42 5 -49 -9 -21
-144 -108 -199 -127 -59 -20 -98 -22 -128 -7 -52 28 -49 60 11 101 26 18 66
50 89 71 l41 38 34 -21 c45 -27 84 -26 111 5 12 13 23 25 24 25 1 0 7 -16 12
-36z"/>
<path d="M9725 3100 c3 -5 8 -10 11 -10 2 0 4 5 4 10 0 6 -5 10 -11 10 -5 0
-7 -4 -4 -10z"/>
<path d="M8632 5848 c-25 -40 -80 -85 -115 -94 -37 -9 -55 -32 -31 -40 59 -19
78 -31 119 -75 25 -27 49 -49 54 -49 4 0 22 17 39 39 18 22 50 47 76 57 25 11
46 24 46 30 0 6 -22 21 -50 34 -27 13 -62 37 -77 53 -15 17 -23 27 -16 24 15
-9 5 29 -12 43 -10 8 -18 3 -33 -22z m81 -85 c20 -18 42 -33 47 -33 18 0 10
-19 -11 -25 -12 -4 -38 -24 -59 -45 l-39 -39 -43 42 c-24 23 -51 47 -61 52
-16 9 -11 16 39 58 62 52 54 53 127 -10z"/>
<path d="M4465 5710 c-47 -18 -63 -55 -90 -215 -9 -55 -23 -130 -32 -167 l-15
-67 -87 -54 c-119 -75 -226 -137 -234 -137 -4 0 -23 33 -41 74 -31 68 -56 96
-85 96 -6 0 -11 -13 -11 -28 0 -64 -53 -76 -173 -41 -54 16 -85 20 -119 15
-53 -8 -124 -55 -138 -90 -5 -15 -20 -27 -39 -31 -77 -17 -122 -89 -122 -200
0 -40 4 -83 10 -94 6 -11 11 -22 11 -24 0 -4 -174 -110 -308 -186 l-73 -42 3
-92 3 -92 83 -45 83 -45 -6 -40 c-3 -22 -8 -104 -12 -182 -3 -78 -9 -146 -13
-153 -4 -7 -45 12 -116 53 -160 93 -194 103 -269 83 -92 -24 -138 -61 -166
-133 -11 -28 -13 -137 -4 -182 2 -14 7 -47 10 -75 5 -49 12 -103 20 -156 4
-28 15 -102 20 -140 2 -14 11 -77 20 -140 36 -263 46 -298 111 -377 37 -45 94
-81 369 -236 218 -123 304 -167 326 -167 17 0 19 -8 19 -75 0 -41 -4 -75 -8
-75 -21 0 -36 -56 -37 -133 l0 -82 -45 -7 c-25 -3 -92 -11 -150 -18 -123 -13
-258 -45 -282 -67 -9 -8 -21 -26 -28 -41 -6 -15 -26 -36 -43 -47 -87 -55 -53
-205 47 -205 41 0 75 24 93 67 13 32 12 39 -5 74 l-20 40 33 13 c30 13 45 17
115 32 36 7 157 17 217 17 56 1 100 -17 107 -42 3 -9 8 -91 12 -183 5 -145 4
-169 -9 -174 -20 -7 -40 -86 -28 -116 17 -45 49 -68 92 -68 92 0 128 66 88
162 -6 16 -16 28 -21 28 -12 0 -8 304 5 342 13 41 51 51 179 45 112 -5 193
-17 256 -38 37 -12 36 -9 17 -45 -24 -46 -19 -89 13 -125 33 -37 73 -41 121
-13 69 41 69 151 0 193 -18 11 -44 41 -58 68 -25 46 -29 49 -96 66 -38 9 -144
24 -235 33 -91 9 -167 18 -170 21 -3 2 -4 39 -2 81 1 54 -2 82 -13 98 -10 16
-15 49 -15 102 l0 79 93 46 c50 25 109 56 129 68 21 13 39 21 42 18 2 -2 7
-89 10 -194 8 -210 13 -230 68 -240 58 -11 83 -1 180 69 112 81 152 100 147
74 -2 -7 0 -35 4 -63 4 -27 9 -72 12 -100 18 -198 20 -207 64 -225 48 -19 89
-7 191 58 151 96 170 111 181 139 25 67 -20 108 -118 105 -35 -1 -62 2 -60 6
3 4 8 79 11 167 4 88 9 178 11 200 3 22 7 74 10 115 27 393 27 434 4 496 -36
95 -106 134 -243 134 -42 0 -76 3 -76 6 0 3 13 24 29 47 15 23 41 67 56 97 15
30 29 57 31 59 3 4 41 -17 329 -176 160 -89 257 -143 600 -336 50 -28 107 -60
127 -71 21 -12 38 -24 38 -28 0 -4 -18 -20 -40 -34 -22 -15 -39 -29 -36 -31 4
-5 14 1 346 197 390 231 732 428 814 468 l50 25 63 -32 c35 -17 93 -49 129
-71 36 -22 68 -40 70 -40 2 0 28 -15 57 -33 28 -19 111 -67 182 -107 72 -40
189 -108 260 -150 72 -42 185 -107 252 -144 117 -65 173 -107 173 -129 0 -6
-12 1 -27 15 -16 14 -91 60 -168 103 -77 43 -176 99 -220 125 -44 26 -138 81
-210 122 -71 42 -218 126 -325 188 -238 138 -234 138 -370 61 -208 -118 -542
-311 -686 -397 -44 -27 -120 -71 -168 -99 -48 -27 -189 -110 -314 -184 -286
-169 -362 -210 -388 -211 -11 0 -28 -6 -38 -13 -18 -13 -19 -29 -13 -334 2
-83 20 -114 81 -146 l38 -20 -23 -18 c-13 -10 -62 -39 -109 -65 -47 -26 -141
-81 -210 -122 -69 -41 -149 -88 -177 -105 -67 -39 -90 -83 -74 -137 9 -30 21
-42 63 -65 67 -35 98 -63 98 -87 0 -11 -18 -35 -39 -55 -51 -45 -72 -98 -76
-191 -6 -142 28 -226 113 -279 70 -43 222 -131 305 -176 34 -19 85 -47 112
-62 28 -16 66 -37 85 -48 19 -10 78 -44 131 -73 53 -30 113 -57 132 -61 39 -6
61 5 282 134 272 159 323 188 383 220 35 19 80 40 100 47 21 8 111 56 202 109
91 52 232 134 314 181 82 47 152 86 155 86 3 0 21 13 39 28 35 30 41 62 16 86
-24 24 -44 20 -113 -25 -34 -22 -131 -78 -214 -124 -210 -115 -299 -166 -452
-262 -44 -27 -105 -64 -135 -81 -30 -16 -140 -80 -245 -140 -160 -93 -191
-108 -197 -94 -5 12 -7 13 -7 3 -1 -8 -10 -34 -22 -58 -21 -44 -60 -73 -99
-73 -11 0 -123 58 -248 129 -125 70 -292 164 -371 207 -166 91 -203 123 -220
187 -22 88 -8 257 21 257 6 0 7 -8 3 -22 -7 -21 -10 -112 -7 -199 1 -19 8 -43
15 -52 10 -14 12 7 10 113 l-3 130 33 -16 c17 -9 46 -26 62 -39 17 -12 53 -34
82 -48 28 -15 154 -86 280 -158 125 -72 250 -143 276 -157 81 -43 127 -113
127 -192 0 -24 -23 -68 -43 -81 -10 -7 -74 25 -206 105 -50 31 -94 56 -97 56
-2 0 -29 16 -59 37 -53 35 -73 38 -62 11 5 -14 345 -221 390 -238 36 -13 61 0
87 43 24 39 25 78 4 139 -30 91 -53 106 -574 403 -85 48 -188 108 -227 132
-40 23 -78 43 -85 43 -9 0 -9 3 -1 11 8 8 86 -32 284 -147 151 -86 333 -191
404 -231 72 -41 142 -87 158 -101 32 -31 76 -115 79 -151 0 -15 4 -6 7 19 3
25 11 44 17 43 7 -1 11 5 10 15 0 9 5 16 12 15 6 -2 12 2 12 8 0 5 5 7 10 4 6
-3 10 -2 10 3 0 13 121 73 133 65 5 -3 7 -1 3 5 -8 13 82 65 97 55 5 -3 7 -1
4 5 -9 13 100 75 115 66 6 -4 8 -3 4 4 -8 14 219 146 235 136 7 -4 9 -3 6 3
-6 10 153 113 173 113 5 0 10 3 12 8 4 10 67 42 84 42 16 0 19 16 4 25 -5 3 2
22 15 42 14 20 25 41 25 47 0 21 -29 52 -37 41 -11 -14 -44 -35 -144 -88 -67
-36 -88 -44 -98 -34 -10 9 -11 9 -6 -4 4 -10 0 -16 -9 -16 -11 0 -13 5 -5 18
13 24 50 50 62 42 6 -3 7 -1 4 4 -4 6 2 18 13 28 11 10 20 15 20 10 0 -4 13 7
29 24 15 16 31 27 35 24 3 -3 6 1 6 11 0 9 4 15 9 11 5 -3 13 4 16 16 4 11 9
18 12 15 3 -2 24 14 47 37 23 23 64 60 91 82 28 22 57 47 65 55 14 14 28 26
151 132 165 143 194 160 1062 670 48 28 87 57 87 63 0 7 -9 20 -20 30 -26 23
-25 49 2 93 31 50 30 126 -1 170 -22 32 -56 53 -356 224 -82 47 -220 126 -305
176 -449 260 -525 302 -548 302 -14 0 -61 -22 -106 -48 -45 -27 -124 -73 -176
-102 -52 -29 -129 -73 -170 -98 -41 -25 -127 -75 -190 -112 -63 -37 -159 -93
-212 -124 l-97 -57 -183 104 c-101 57 -280 157 -398 223 -615 339 -635 351
-632 375 1 13 4 24 5 26 3 3 213 -107 367 -193 491 -272 654 -357 632 -331 -7
8 -26 20 -42 27 -17 7 -30 17 -30 23 0 6 -3 7 -7 4 -3 -4 -16 1 -27 12 -24 22
-190 116 -343 194 -57 29 -103 55 -103 58 0 3 12 11 28 18 15 7 82 47 149 88
67 42 125 75 129 73 4 -1 10 2 13 7 10 13 65 48 74 45 4 -1 7 2 7 8 0 5 4 10
9 10 11 0 281 158 300 176 25 23 4 28 -36 9 -21 -10 -87 -48 -148 -85 -60 -37
-207 -125 -325 -195 -118 -70 -218 -133 -223 -139 -5 -8 -12 -5 -21 7 -14 18
-31 24 -21 6 4 -6 -2 -5 -13 2 -12 7 -18 17 -15 23 3 5 1 6 -5 2 -14 -8 -63
14 -56 26 3 5 2 8 -3 7 -22 -4 -43 2 -38 11 3 6 -1 7 -9 4 -9 -3 -16 -1 -16 5
0 6 -3 10 -7 10 -20 -3 -34 2 -28 10 3 5 0 13 -6 17 -8 5 -9 3 -4 -6 9 -15 2
-12 -47 19 -21 12 -38 27 -38 32 0 4 -7 6 -15 3 -8 -4 -15 -1 -15 5 0 6 -3 10
-8 9 -4 -2 -17 6 -29 17 -21 19 -21 23 -8 85 7 36 16 94 20 130 4 36 8 66 10
68 2 2 34 -14 72 -35 95 -53 121 -64 128 -53 4 6 0 10 -9 10 -8 0 -16 3 -18 8
-1 4 -19 16 -38 26 -103 57 -137 84 -137 110 0 14 2 26 5 26 3 0 41 -21 85
-47 105 -61 141 -73 186 -61 20 6 38 14 41 18 3 5 12 10 20 12 14 3 20 7 54
35 7 6 17 9 20 6 3 -4 6 -1 6 6 0 7 5 9 10 6 6 -3 10 -2 10 3 0 5 8 12 18 15
19 7 84 43 187 107 39 23 79 48 90 54 103 58 132 91 140 156 4 30 8 56 10 58
2 2 25 -9 52 -24 26 -15 95 -53 153 -84 58 -31 137 -75 177 -98 79 -46 83 -48
83 -29 0 11 -101 71 -340 202 -58 31 -108 60 -112 64 -4 3 -3 24 2 46 15 72
30 147 71 355 56 283 61 270 -168 400 -70 40 -175 101 -233 135 -58 34 -159
93 -225 130 -249 142 -264 148 -300 135z m159 -93 c161 -95 468 -272 584 -338
62 -35 129 -77 149 -93 35 -29 35 -31 30 -86 -4 -31 -24 -147 -46 -256 -22
-109 -49 -251 -61 -314 -12 -63 -27 -119 -32 -125 -8 -7 -8 -5 -3 5 7 12 5 12
-11 -1 -18 -15 -482 -293 -531 -318 -49 -25 -106 -9 -215 63 -33 21 -46 36
-43 47 12 37 6 137 -9 167 -9 17 -43 50 -77 72 -57 39 -72 60 -83 113 -3 12
-7 33 -10 46 -5 21 -4 22 12 9 29 -24 179 -107 206 -114 14 -3 24 -10 21 -14
-3 -4 23 -22 58 -40 34 -18 66 -36 71 -41 6 -5 21 -9 34 -9 13 0 21 -4 18 -9
-7 -11 41 -44 53 -36 5 2 11 -1 14 -8 8 -21 93 -61 113 -53 18 7 17 9 -6 27
-14 11 -35 24 -48 29 -13 6 -21 14 -18 19 3 5 -5 12 -19 15 -14 4 -25 11 -25
16 0 6 -8 10 -17 10 -10 0 -27 8 -38 17 -19 15 -19 15 8 9 16 -4 46 -18 68
-31 21 -14 43 -25 49 -25 5 0 10 -6 10 -13 0 -12 30 -36 60 -48 8 -3 25 -2 38
4 23 11 30 27 10 27 -6 0 -8 3 -5 6 4 4 12 2 19 -4 10 -8 24 -3 53 17 22 15
54 33 72 40 62 25 60 35 -24 88 -43 27 -168 103 -278 168 -191 112 -270 160
-389 233 -52 32 -93 35 -82 7 3 -9 -2 -11 -16 -7 -15 4 -19 2 -14 -7 6 -8 1
-10 -18 -5 -35 9 -33 -10 5 -36 16 -12 28 -25 25 -28 -3 -3 -14 2 -25 12 -19
18 -91 34 -91 21 0 -11 40 -44 73 -61 29 -16 36 -34 12 -34 -8 0 -15 6 -15 13
0 8 -22 24 -50 37 -48 23 -50 23 -70 5 -15 -14 -17 -21 -9 -32 14 -16 -2 -18
-18 -2 -8 8 -17 8 -33 -1 -17 -9 -19 -14 -9 -26 14 -17 62 -44 79 -44 5 0 10
9 10 21 0 11 -4 17 -10 14 -5 -3 -10 -2 -10 3 0 5 18 9 40 9 22 0 40 -4 40 -8
0 -5 5 -8 11 -6 6 1 14 -4 16 -11 4 -10 -5 -11 -38 -6 l-44 7 16 -24 c9 -13
27 -29 39 -36 25 -13 47 -43 31 -43 -5 0 -3 -19 4 -45 8 -24 21 -83 31 -130
18 -90 31 -108 36 -49 l3 35 43 -36 c23 -20 42 -33 42 -28 0 5 -5 14 -12 21
-7 7 -9 12 -5 12 4 0 16 -15 27 -32 24 -40 27 -136 6 -196 -8 -23 -16 -74 -17
-114 -4 -142 -64 -408 -124 -557 -45 -110 -120 -234 -167 -276 -77 -70 -187
-56 -230 31 -28 53 -88 248 -88 280 0 5 24 10 54 11 29 1 73 9 97 18 24 9 51
19 60 21 12 4 18 -11 29 -78 7 -46 13 -91 12 -100 0 -10 3 -20 8 -23 4 -3 11
23 15 58 4 34 20 94 35 132 15 39 62 177 105 308 l78 238 -16 52 c-9 28 -18
97 -21 152 -7 149 -27 296 -40 292 -6 -2 -11 -12 -12 -23 -1 -10 -2 -30 -3
-43 0 -15 -22 -45 -56 -78 l-55 -54 20 -21 c32 -35 13 -34 -33 0 -23 18 -74
50 -114 73 -70 39 -71 41 -62 69 6 16 14 59 17 96 l7 67 70 44 c39 23 84 49
100 57 17 8 50 30 75 50 25 20 48 36 52 36 3 0 30 16 60 35 44 30 54 41 59 73
3 20 23 129 43 242 79 434 83 447 140 436 16 -4 70 -30 120 -59z m-309 -434
c-4 -21 -9 -49 -11 -63 -10 -81 -28 -149 -40 -154 -8 -3 -78 -46 -155 -96
-123 -79 -192 -120 -201 -120 -2 0 -4 16 -5 36 -1 29 5 41 37 70 40 37 58 76
64 138 3 36 8 40 103 95 54 32 123 74 153 94 30 20 56 37 58 37 3 0 1 -17 -3
-37z m82 -345 c67 -35 75 -44 43 -44 -11 0 -20 4 -20 7 0 4 -21 18 -46 30 -43
22 -64 39 -47 39 4 0 35 -15 70 -32z m-523 -115 c-7 -107 -28 -200 -53 -233
-16 -21 -26 -25 -70 -25 -45 1 -51 -1 -51 -20 0 -12 -6 -29 -12 -38 -12 -15
-21 -13 -102 17 -104 40 -123 54 -73 54 46 0 101 27 133 65 23 27 25 37 20 81
-5 37 -3 57 8 71 14 20 15 20 45 -3 17 -12 32 -22 34 -22 5 0 24 71 29 105 2
13 14 22 33 26 68 15 66 18 59 -78z m566 14 c69 -40 152 -91 185 -112 33 -22
76 -47 95 -55 34 -15 99 -53 167 -97 18 -13 47 -30 63 -38 17 -9 30 -20 30
-25 0 -14 -16 -12 -32 3 -18 18 -116 77 -128 77 -5 0 -13 6 -17 13 -4 7 -24
19 -43 27 -19 8 -37 16 -40 19 -3 3 -14 11 -25 17 -67 36 -92 51 -115 72 -13
12 -30 22 -37 22 -7 0 -13 5 -13 10 0 6 -5 10 -11 10 -6 0 -48 23 -95 50 -47
28 -88 50 -93 50 -5 0 -14 7 -21 15 -23 28 5 15 130 -58z m78 27 c28 -13 43
-34 26 -34 -12 0 -64 34 -64 42 0 11 2 10 38 -8z m-210 -22 c2 -7 -3 -12 -12
-12 -9 0 -16 7 -16 16 0 17 22 14 28 -4z m67 -36 c17 -13 64 -41 104 -62 40
-22 80 -43 90 -49 30 -18 141 -98 141 -101 0 -13 -33 0 -56 21 -15 14 -31 25
-36 25 -5 0 -16 6 -24 13 -8 6 -20 17 -27 22 -7 6 -41 25 -77 44 -36 18 -72
39 -80 46 -8 6 -23 15 -32 18 -10 4 -18 11 -18 17 0 5 -7 10 -15 10 -8 0 -15
5 -15 10 0 15 10 12 45 -14z m225 9 c6 -8 22 -17 33 -21 26 -8 159 -92 168
-106 3 -5 10 -10 15 -10 17 -1 39 -12 70 -35 17 -13 35 -23 40 -23 5 0 33 -18
62 -40 30 -22 59 -37 67 -33 17 6 21 -12 5 -22 -8 -5 -132 68 -185 110 -10 8
-27 15 -37 15 -10 0 -18 4 -18 10 0 5 -11 12 -25 16 -14 3 -25 12 -25 20 0 8
-9 14 -20 14 -11 0 -20 4 -20 10 0 5 -11 12 -25 16 -14 3 -25 10 -25 15 0 5
-8 9 -19 9 -10 0 -24 6 -30 14 -7 8 -23 17 -36 20 -14 4 -25 13 -25 21 0 19
14 19 30 0z m-1254 -42 l25 -41 -87 -53 c-81 -50 -112 -79 -84 -79 6 0 23 8
38 18 50 35 142 92 146 92 7 0 46 -71 46 -83 -1 -7 -13 -26 -28 -43 -22 -25
-37 -32 -79 -37 -54 -6 -148 -47 -156 -69 -4 -10 -7 -11 -14 0 -5 7 -53 36
-106 66 l-98 54 48 29 c26 17 98 60 158 96 61 36 119 73 130 81 27 20 33 17
61 -31z m924 33 c0 -11 -19 -15 -25 -6 -3 5 1 10 9 10 9 0 16 -2 16 -4z m60
-36 c0 -5 -7 -7 -15 -4 -8 4 -15 8 -15 10 0 2 7 4 15 4 8 0 15 -4 15 -10z m-5
-21 c10 -14 1 -21 -19 -13 -9 3 -13 10 -10 15 7 12 21 11 29 -2z m90 -43 c17
-12 51 -32 78 -46 26 -14 47 -28 47 -32 0 -5 6 -8 14 -8 8 0 21 -6 28 -12 27
-25 77 -58 89 -58 7 0 10 -3 6 -6 -7 -7 -77 17 -77 27 0 4 -9 11 -20 14 -11 4
-32 18 -45 31 -13 13 -39 27 -57 31 -18 3 -37 12 -41 20 -5 7 -12 11 -18 8 -5
-4 -9 -1 -9 4 0 6 -16 17 -35 25 -19 8 -35 20 -35 26 0 15 36 3 75 -24z m354
-133 c17 -10 31 -21 31 -25 0 -5 5 -8 10 -8 20 0 125 -73 112 -78 -7 -2 -21 3
-31 12 -10 9 -23 16 -29 16 -7 0 -12 3 -12 8 0 10 -58 42 -76 42 -8 0 -14 7
-14 15 0 8 -9 15 -20 15 -11 0 -20 5 -20 10 0 15 14 12 49 -7z m-1180 -86 c40
-15 79 -27 87 -27 8 0 14 -10 14 -25 0 -22 -4 -25 -32 -25 -46 1 -125 30 -192
70 -61 37 -61 37 -46 74 l10 26 43 -33 c24 -19 76 -46 116 -60z m299 60 c20
-13 89 -55 152 -92 140 -83 155 -96 158 -136 1 -17 11 -48 22 -70 18 -35 19
-42 6 -67 -8 -15 -28 -71 -46 -124 l-32 -97 -32 23 c-17 13 -54 35 -82 49 -45
23 -54 33 -77 87 -15 34 -27 63 -27 66 0 2 24 -9 53 -26 58 -32 67 -35 67 -20
0 5 -35 30 -79 55 -43 26 -91 62 -107 82 -16 20 -51 54 -79 76 -55 43 -66 67
-58 127 6 45 23 51 62 23 46 -31 376 -212 380 -207 8 8 -12 21 -196 126 l-182
105 27 21 c15 11 28 21 30 21 1 1 19 -10 40 -22z m310 -54 l9 -51 -38 25 c-51
34 -57 53 -23 81 32 28 38 22 52 -55z m-1210 49 c15 -11 55 -34 90 -52 34 -18
62 -38 62 -44 0 -6 -9 -26 -20 -43 l-20 -33 -67 41 c-38 23 -71 47 -75 53 -9
13 -11 96 -2 96 3 0 18 -8 32 -18z m408 -54 c86 -55 161 -88 235 -103 40 -9
87 -24 104 -35 49 -31 130 -121 160 -179 29 -58 92 -294 101 -381 l6 -55 -48
-23 c-105 -47 -185 -50 -197 -5 -37 128 -80 253 -87 253 -6 0 -10 -7 -10 -15
0 -22 66 -271 86 -325 11 -29 16 -69 14 -110 -4 -137 -3 -269 5 -361 6 -80 5
-101 -9 -131 -29 -61 -100 -100 -209 -113 -53 -7 -56 -6 -61 16 -5 22 -37 335
-51 504 -22 257 -79 360 -256 461 l-74 42 1 133 c1 213 34 345 101 404 24 22
97 52 129 54 5 1 32 -13 60 -31z m1608 3 c3 -5 -1 -11 -9 -14 -9 -4 -12 -1 -8
9 6 16 10 17 17 5z m250 -13 c-3 -7 -15 -20 -27 -29 -44 -32 -468 -281 -502
-295 -72 -30 -56 -12 30 35 124 66 479 281 483 292 2 5 8 9 13 9 4 0 6 -6 3
-12z m-1088 -46 c-4 -3 -14 2 -24 12 -16 18 -16 18 6 6 13 -6 21 -14 18 -18z
m-1350 -377 c30 -14 88 -44 127 -68 40 -24 127 -76 194 -116 138 -81 191 -133
223 -219 27 -71 31 -100 90 -720 19 -206 31 -247 84 -286 17 -13 42 -21 70
-21 56 0 50 -12 -10 -21 -81 -12 -161 26 -188 89 -20 50 -24 81 -56 426 -38
402 -42 431 -80 508 -40 81 -85 119 -271 229 -276 164 -317 180 -382 149 -45
-21 -62 -62 -61 -145 2 -85 100 -762 120 -830 28 -93 74 -131 367 -298 144
-82 281 -157 304 -167 44 -19 104 -23 166 -11 51 9 47 -1 -5 -15 -105 -28
-139 -16 -445 157 -293 165 -326 187 -367 247 -42 63 -60 125 -81 282 -9 66
-30 215 -47 330 -40 279 -43 332 -24 398 17 59 33 77 92 107 53 26 112 25 180
-5z m1255 -77 c62 -38 81 -63 63 -80 -3 -3 -35 11 -71 31 -50 27 -69 43 -74
64 -10 37 1 35 82 -15z m19 -100 c19 -14 22 -23 17 -54 -8 -45 -10 -48 -40
-40 -27 6 -42 37 -53 105 l-6 44 29 -19 c16 -10 40 -27 53 -36z m-20 -152 c-1
-6 -7 -24 -15 -41 -13 -30 -13 -30 -14 24 -1 46 1 52 14 41 8 -7 15 -18 15
-24z m385 -40 c87 -47 148 -81 320 -178 44 -25 186 -104 315 -176 354 -196
444 -248 447 -258 3 -11 -57 -51 -89 -59 -16 -4 -47 7 -103 38 -240 130 -1001
556 -1023 573 -6 4 31 115 37 112 3 -2 47 -25 96 -52z m-635 -333 c0 -2 -7 -3
-15 -3 -11 0 -15 12 -14 48 l0 47 15 -45 c7 -25 14 -46 14 -47z m2627 10 c37
-20 172 -97 298 -171 127 -75 264 -154 305 -177 41 -24 128 -74 193 -112 l119
-70 -34 -20 c-39 -24 -499 -288 -751 -432 -97 -55 -185 -101 -194 -101 -19 0
-64 25 -383 215 -410 245 -480 285 -491 285 -6 0 -52 -23 -103 -52 -141 -80
-269 -148 -280 -148 -5 0 -20 10 -32 21 l-23 22 22 17 c12 9 92 58 177 107 85
50 207 122 270 160 63 38 151 89 195 113 84 45 237 136 490 288 83 50 151 91
152 91 0 1 32 -16 70 -36z m784 -282 c239 -139 249 -145 249 -152 0 -9 -58
-45 -86 -53 -20 -6 -80 26 -381 200 -18 11 -32 22 -30 26 3 9 90 67 98 65 3
-1 70 -40 150 -86z m-3021 -159 c0 -12 -434 -242 -486 -258 -89 -27 -163 -13
-198 38 -9 12 -16 25 -16 28 0 3 42 4 92 3 78 -2 104 2 163 24 38 14 78 26 88
26 9 1 17 5 17 10 0 11 69 39 80 32 6 -4 10 1 10 9 0 14 12 20 33 17 4 0 7 3
7 9 0 13 58 42 70 35 6 -3 10 -1 10 5 0 6 5 8 10 5 6 -3 10 -2 10 4 0 5 8 12
18 14 29 8 92 7 92 -1z m-65 -174 c4 -46 9 -90 10 -98 2 -8 6 -45 10 -81 l7
-67 -42 -4 -42 -4 6 36 c3 19 8 71 12 115 4 44 8 89 9 100 1 11 3 35 4 53 2
63 19 31 26 -50z m3543 -38 c0 -22 5 -47 11 -54 10 -12 8 -18 -11 -29 -55 -35
-637 -377 -774 -455 -49 -29 -117 -75 -149 -102 -33 -28 -62 -50 -67 -50 -4 0
-17 -10 -30 -22 -22 -22 -81 -73 -353 -308 -67 -58 -159 -138 -204 -178 l-82
-73 -57 44 c-79 60 -119 86 -602 378 -234 142 -451 276 -482 298 -53 38 -58
44 -58 78 0 21 3 48 6 60 6 23 7 23 73 -13 36 -20 77 -44 91 -54 14 -9 46 -29
72 -43 26 -14 118 -68 205 -118 231 -135 325 -189 330 -189 2 0 74 -42 161
-94 230 -137 231 -137 267 -119 17 9 57 35 90 58 62 44 212 134 300 181 28 15
52 30 53 35 2 5 7 9 12 9 4 0 39 18 76 40 38 22 75 38 81 35 7 -2 12 -1 10 3
-1 4 2 7 6 7 5 0 13 8 18 18 6 9 14 15 19 12 13 -8 94 38 98 56 2 9 -4 24 -13
32 -8 9 -15 20 -15 26 0 6 -7 8 -15 5 -8 -4 -15 -1 -15 4 0 16 119 84 132 76
7 -5 8 -2 3 6 -6 10 -4 12 9 7 10 -4 15 -3 11 3 -7 12 92 63 106 55 5 -4 8 -1
7 7 -2 7 5 12 14 12 10 -1 16 2 13 6 -8 12 103 73 116 64 7 -4 9 -3 5 4 -4 6
19 24 56 44 35 19 137 78 226 131 90 53 169 94 174 90 7 -3 8 -1 4 5 -4 7 8
19 31 31 21 10 39 19 40 20 1 1 1 -17 1 -39z m-2113 -7 c16 -10 16 -13 3 -13
-9 0 -26 9 -39 20 -21 17 -21 19 -4 13 11 -3 29 -12 40 -20z m-23 -16 c20 -12
63 -37 95 -56 32 -18 85 -50 118 -71 73 -45 410 -243 444 -260 23 -12 23 -12
5 -29 -18 -17 -259 -161 -269 -161 -3 0 -143 82 -312 181 -170 100 -332 195
-360 212 -29 17 -53 34 -53 37 0 3 53 35 118 72 64 37 126 74 137 82 26 20 33
20 77 -7z m-672 -102 c7 -8 38 -29 69 -47 107 -60 648 -375 853 -497 48 -28
99 -56 114 -61 29 -11 2 -25 329 167 249 146 408 234 420 230 5 -2 10 -18 10
-37 0 -30 -6 -36 -80 -80 -44 -26 -163 -96 -265 -157 -360 -213 -367 -217
-397 -204 -22 10 -316 178 -578 331 -44 26 -136 80 -205 120 -69 40 -169 98
-222 129 -54 31 -100 62 -103 69 -7 18 12 52 29 52 8 0 19 -7 26 -15z m1175
-173 c-3 -3 -11 0 -18 7 -9 10 -8 11 6 5 10 -3 15 -9 12 -12z m-2645 -155 c0
-5 -7 -4 -15 3 -8 7 -15 20 -15 29 1 13 3 13 15 -3 8 -11 15 -24 15 -29z m114
-2 c-4 -8 -11 -15 -16 -15 -6 0 -5 6 2 15 7 8 14 15 16 15 2 0 1 -7 -2 -15z
m3156 -23 c0 -25 -19 -39 -245 -172 -135 -80 -283 -169 -330 -199 -83 -54 -84
-55 -95 -108 -6 -29 -15 -53 -20 -53 -14 0 -41 45 -43 69 -1 13 -6 20 -14 17
-7 -3 -13 -1 -13 3 0 5 6 11 14 14 8 3 13 14 10 24 -3 14 22 33 118 87 68 38
191 110 273 159 288 171 315 186 333 187 7 0 12 -12 12 -28z m-3197 -19 c-22
-17 -45 -16 -67 0 -16 12 -12 13 33 13 44 -1 49 -3 34 -13z m3213 -58 c11 -27
-23 -62 -101 -104 -41 -23 -144 -83 -228 -133 -83 -50 -178 -106 -210 -125
-58 -32 -97 -42 -97 -24 0 5 -2 16 -5 23 -4 10 20 28 72 58 43 24 183 105 312
182 129 76 238 138 243 138 5 0 11 -7 14 -15z m-3296 -70 c0 -8 -2 -15 -4 -15
-2 0 -71 -7 -153 -15 -131 -13 -291 -45 -345 -69 -28 -12 -22 11 8 30 31 21
153 51 242 59 37 4 96 10 132 15 106 12 120 12 120 -5z m61 -92 c8 -172 8
-393 0 -393 -17 0 -20 34 -23 228 -2 140 0 182 10 182 6 0 12 -8 13 -17z
m1015 -212 c-16 -17 -26 -36 -23 -43 2 -7 166 -105 363 -217 526 -299 525
-299 572 -349 24 -26 40 -40 37 -31 -4 12 2 21 22 32 28 15 104 58 178 102 22
12 43 21 46 19 4 -2 9 3 12 11 6 15 87 60 87 49 0 -4 8 2 18 12 9 11 46 37 80
58 l64 38 41 -30 c63 -45 71 -34 -93 -127 -41 -23 -174 -99 -295 -168 l-220
-126 -12 27 c-6 15 -19 35 -30 44 -10 9 -157 96 -328 193 -410 235 -587 340
-627 373 -10 9 -18 27 -18 42 0 37 25 65 85 94 66 33 74 32 41 -3z m1423 -295
c-2 -3 -98 -61 -212 -130 -115 -69 -221 -135 -237 -146 -15 -11 -33 -20 -39
-20 -23 0 -9 16 37 41 26 14 110 63 187 109 233 139 250 148 259 149 5 1 7 -1
5 -3z m755 -95 c3 -5 -72 -53 -167 -107 -94 -53 -234 -134 -310 -180 -75 -45
-139 -78 -142 -74 -7 12 29 36 241 158 104 60 227 133 274 161 90 54 96 56
104 42z"/>
<path d="M4466 5624 c-8 -22 -116 -610 -116 -632 1 -18 9 -24 255 -170 88 -52
187 -111 220 -132 169 -104 372 -220 385 -220 13 0 26 50 60 230 53 284 70
384 70 416 0 40 -22 59 -140 124 -52 29 -158 90 -235 135 -268 157 -462 265
-477 265 -9 0 -19 -7 -22 -16z m62 -212 c2 -15 -2 -22 -12 -22 -11 0 -16 9
-16 26 0 31 23 28 28 -4z m82 -48 c0 -13 -4 -24 -10 -24 -5 0 -10 14 -10 31 0
17 4 28 10 24 6 -3 10 -17 10 -31z m-100 -44 c0 -20 -5 -30 -15 -30 -16 0 -19
17 -9 44 10 26 24 18 24 -14z m180 5 c0 -16 -6 -25 -15 -25 -16 0 -19 9 -9 34
9 25 24 19 24 -9z m-92 -45 c11 -17 10 -20 -7 -20 -22 0 -35 15 -26 30 9 15
19 12 33 -10z m190 -7 c3 -17 -1 -20 -17 -16 -26 7 -29 46 -3 41 9 -2 18 -13
20 -25z m160 -5 c7 -7 12 -22 12 -33 0 -25 -35 -61 -44 -46 -4 5 -1 13 5 16 6
5 8 21 4 41 -6 35 2 43 23 22z m-462 -65 c-12 -12 -23 17 -18 45 l6 27 9 -33
c6 -18 7 -36 3 -39z m204 29 c0 -26 -11 -34 -27 -21 -20 17 -16 39 7 39 13 0
20 -7 20 -18z m195 -12 c18 -20 18 -21 -5 -12 -13 5 -26 14 -28 20 -6 19 13
14 33 -8z m-305 -36 c0 -24 -14 -32 -25 -14 -9 14 4 52 16 45 5 -4 9 -17 9
-31z m188 3 c3 -21 0 -26 -12 -21 -19 7 -22 58 -3 52 6 -3 13 -17 15 -31z
m372 -49 c27 -18 50 -37 50 -41 0 -9 -86 38 -110 60 -28 26 9 14 60 -19z
m-662 -6 c2 -14 -2 -22 -12 -22 -19 0 -28 14 -20 35 9 21 28 14 32 -13z m192
-3 c0 -5 -7 -9 -15 -9 -9 0 -15 9 -15 21 0 18 2 19 15 9 8 -7 15 -16 15 -21z
m250 -14 c56 -34 87 -61 79 -69 -6 -6 -159 87 -159 96 0 15 23 7 80 -27z m90
4 c0 -18 -2 -19 -15 -9 -8 7 -15 16 -15 21 0 5 7 9 15 9 9 0 15 -9 15 -21z
m-255 -24 c0 -28 -29 -25 -33 3 -3 19 0 23 15 20 10 -2 18 -12 18 -23z m423
-38 c37 -34 25 -38 -21 -6 -24 16 -53 31 -65 32 -14 1 -22 8 -22 19 0 17 3 17
43 -3 23 -12 52 -31 65 -42z m-618 28 c0 -25 -14 -34 -24 -16 -8 12 3 41 15
41 5 0 9 -11 9 -25z m88 -44 c-3 -20 -5 -21 -23 -8 -17 13 -17 17 -6 31 17 21
34 7 29 -23z m-188 10 c0 -26 -16 -35 -24 -15 -10 25 -7 34 9 34 8 0 15 -9 15
-19z m687 -27 c61 -46 57 -43 51 -49 -8 -8 -115 54 -122 70 -10 26 20 17 71
-21z m-417 -13 c0 -20 -17 -37 -27 -28 -7 8 7 47 18 47 5 0 9 -9 9 -19z m144
13 c21 -8 21 -56 0 -96 -15 -28 -17 -30 -26 -14 -7 13 -7 21 1 26 14 8 16 35
6 68 -8 24 -6 25 19 16z m-256 -56 c-5 -32 -28 -35 -28 -4 0 17 5 26 16 26 10
0 14 -7 12 -22z m186 7 c11 -8 17 -18 14 -21 -11 -10 -48 7 -48 22 0 18 10 17
34 -1z m324 -85 c5 0 16 -8 23 -17 13 -15 11 -16 -11 -9 -14 4 -39 9 -56 12
-26 5 -30 10 -26 30 l4 24 28 -20 c16 -11 32 -20 38 -20z m-338 1 c0 -23 -16
-36 -25 -21 -9 14 1 40 15 40 5 0 10 -9 10 -19z m184 3 c4 -9 5 -19 2 -21 -7
-7 -46 17 -46 27 0 17 37 11 44 -6z m136 -54 c33 -17 60 -37 60 -45 0 -12 -9
-9 -40 10 -23 14 -52 30 -65 35 -14 5 -25 14 -25 20 0 14 4 13 70 -20z m-162
-6 c24 -7 26 -12 13 -32 -7 -12 -12 -12 -29 -1 -44 28 -35 46 16 33z m156 -78
c95 -60 84 -77 -15 -23 -32 17 -59 38 -59 45 0 19 17 14 74 -22z"/>
<path d="M3289 4514 c-9 -11 -6 -14 20 -14 34 0 42 15 11 23 -10 3 -24 -1 -31
-9z"/>
<path d="M6245 3101 c-6 -5 -32 -21 -60 -36 -27 -15 -54 -30 -58 -35 -10 -9
23 -33 115 -84 l67 -37 58 30 c97 48 97 51 1 115 -82 55 -105 64 -123 47z m75
-50 c21 -15 53 -34 70 -41 16 -7 30 -15 30 -19 0 -3 -26 -21 -58 -38 l-57 -32
-78 47 c-42 25 -77 49 -77 53 0 4 22 15 50 24 27 9 52 21 55 26 10 15 23 11
65 -20z"/>
<path d="M5955 2932 c-38 -21 -70 -45 -70 -52 0 -8 41 -38 91 -67 l92 -53 81
41 c45 22 79 45 76 49 -6 10 -163 106 -186 115 -8 2 -45 -12 -84 -33z m120
-33 c7 -20 -14 -69 -29 -69 -6 0 -4 -4 4 -9 10 -7 19 -2 32 20 21 34 24 35 24
10 0 -11 -5 -17 -10 -14 -5 4 -7 -3 -3 -16 3 -13 3 -20 0 -17 -3 3 -11 -1 -18
-10 -10 -14 -18 -13 -69 17 -31 19 -65 39 -75 44 -17 10 -17 11 0 29 10 10 29
20 42 21 20 3 24 -1 19 -18 -3 -12 -1 -18 5 -14 6 4 16 0 23 -8 7 -8 17 -15
23 -15 7 0 7 4 -1 12 -17 17 -15 33 3 18 19 -16 19 -1 0 24 -8 11 -15 24 -15
28 0 14 40 -16 45 -33z m105 -58 c0 -9 -24 -21 -43 -21 -6 0 -2 7 9 15 22 17
34 19 34 6z"/>
<path d="M5952 2891 c-11 -7 -10 -9 3 -14 9 -4 14 -3 10 2 -3 5 1 12 7 14 7 3
9 6 3 6 -5 0 -16 -3 -23 -8z"/>
<path d="M5970 2856 c0 -9 30 -14 35 -6 4 6 -3 10 -14 10 -12 0 -21 -2 -21 -4z"/>
<path d="M6490 2905 c-68 -37 -104 -65 -82 -65 7 0 47 -22 91 -49 l78 -49 69
37 c38 21 70 44 72 52 2 13 -133 109 -154 109 -5 0 -38 -16 -74 -35z m150 -42
c19 -12 40 -23 47 -23 29 0 9 -21 -47 -49 l-61 -31 -76 41 -75 42 36 18 c20 9
48 26 63 37 31 23 24 25 113 -35z"/>
<path d="M5696 2787 c-38 -23 -71 -47 -73 -53 -2 -6 39 -34 91 -63 l95 -53 73
43 c40 24 75 45 78 47 10 7 -166 122 -187 122 -4 0 -39 -20 -77 -43z m139 -29
c35 -23 44 -38 24 -38 -15 0 -69 39 -69 51 0 13 7 11 45 -13z m-24 -70 c28
-15 29 -17 12 -26 -12 -7 -25 -7 -36 -1 -9 6 -17 7 -17 4 0 -3 -27 8 -60 25
-33 17 -60 35 -60 40 0 13 17 13 25 0 3 -5 13 -6 21 -3 9 3 20 0 26 -8 6 -10
7 -7 3 10 l-7 24 31 -24 c18 -13 46 -32 62 -41z"/>
<path d="M6280 2768 c-19 -11 -52 -32 -74 -45 l-38 -25 78 -49 c44 -27 85 -49
92 -49 19 0 126 56 141 74 11 13 5 20 -41 49 -50 32 -113 67 -120 67 -2 0 -19
-10 -38 -22z m89 -32 c18 -13 46 -30 62 -36 16 -7 29 -16 29 -20 0 -9 -102
-60 -121 -60 -31 0 -144 73 -128 83 44 25 106 56 115 56 5 1 25 -10 43 -23z"/>
<path d="M6755 2735 c-38 -24 -71 -47 -72 -52 -1 -4 38 -32 87 -61 l89 -54 75
42 c42 22 78 45 81 50 3 5 -9 20 -27 33 -43 31 -143 87 -154 86 -5 -1 -40 -20
-79 -44z m116 -11 c19 -15 26 -24 16 -20 -15 5 -17 2 -12 -13 14 -44 13 -61
-3 -72 -16 -10 -16 -10 1 -5 9 3 25 9 35 13 9 3 5 -4 -10 -15 -14 -12 -31 -22
-36 -22 -15 0 -142 81 -142 90 0 4 23 17 50 29 28 12 50 26 50 31 0 16 14 12
51 -16z m108 -60 c14 -12 -19 -1 -35 12 -18 14 -18 14 6 3 14 -6 27 -13 29
-15z"/>
<path d="M6790 2694 c-19 -19 -27 -32 -17 -28 9 3 17 10 17 15 0 5 5 9 11 9 5
0 7 -4 4 -10 -3 -5 -3 -15 0 -20 9 -15 37 9 31 26 -3 9 1 11 12 7 15 -6 14 -3
-2 15 -11 12 -20 22 -20 21 -1 0 -17 -16 -36 -35z"/>
<path d="M6830 2640 c0 -5 5 -10 11 -10 5 0 7 5 4 10 -3 6 -8 10 -11 10 -2 0
-4 -4 -4 -10z"/>
<path d="M6013 2632 c-22 -15 -55 -35 -72 -44 -17 -9 -31 -21 -31 -25 0 -4 41
-32 90 -61 l90 -54 75 44 c41 24 75 46 75 51 0 8 -166 117 -177 116 -5 0 -27
-13 -50 -27z m112 -52 c22 -15 25 -20 12 -20 -23 0 -57 18 -57 30 0 15 12 12
45 -10z m-116 -10 c4 0 16 -8 27 -18 10 -10 28 -24 39 -30 11 -6 14 -12 7 -12
-7 0 -10 -4 -7 -10 4 -6 -4 -6 -22 1 -37 14 -93 49 -93 58 0 14 14 22 28 16 7
-3 17 -5 21 -5z m157 -45 c-11 -8 -27 -15 -35 -15 -9 1 -2 7 14 15 39 18 44
18 21 0z"/>
<path d="M6515 2589 c-39 -22 -72 -43 -74 -45 -8 -8 160 -114 180 -114 15 0
139 72 139 80 0 12 -54 51 -120 89 l-56 31 -69 -41z m96 -15 c17 -18 19 -23 6
-18 -20 7 -23 -9 -4 -24 6 -5 23 -13 37 -17 l25 -8 -19 22 c-20 22 -20 22 0
16 10 -4 29 -12 41 -17 22 -11 21 -12 -20 -44 -23 -19 -51 -34 -62 -34 -27 0
-148 78 -140 90 3 6 12 10 18 11 7 0 28 11 47 24 44 30 42 30 71 -1z"/>
<path d="M6571 2564 c0 -11 3 -14 6 -6 3 7 2 16 -1 19 -3 4 -6 -2 -5 -13z"/>
<path d="M6265 2450 c-38 -20 -71 -42 -73 -48 -1 -5 36 -34 84 -63 l88 -53 75
40 c41 21 76 44 77 49 5 14 -147 115 -171 113 -5 0 -41 -17 -80 -38z m152 -27
c23 -15 24 -17 7 -24 -22 -8 -49 4 -58 26 -7 20 18 19 51 -2z m-114 -14 c12
-12 15 -19 7 -14 -8 4 -1 -4 15 -19 17 -14 24 -25 18 -26 -7 0 -13 4 -13 9 0
13 -37 20 -48 9 -10 -10 -62 17 -62 32 0 7 38 28 53 29 4 1 18 -9 30 -20z
m177 -33 c0 -2 -12 -11 -27 -20 l-28 -17 24 20 c23 21 31 25 31 17z m-175 -16
c3 -5 1 -10 -4 -10 -6 0 -11 5 -11 10 0 6 2 10 4 10 3 0 8 -4 11 -10z"/>
<path d="M4431 1585 c3 -10 46 -41 104 -75 55 -31 224 -128 375 -215 365 -210
373 -215 389 -215 11 0 10 5 -4 20 -18 20 -112 77 -360 217 -77 44 -215 123
-307 177 -196 113 -201 115 -197 91z"/>
<path d="M5860 1300 c-9 -6 -10 -10 -3 -10 6 0 15 5 18 10 8 12 4 12 -15 0z"/>
<path d="M1939 5391 c-19 -20 -63 -51 -97 -69 -34 -18 -62 -37 -62 -42 0 -4
28 -23 63 -40 91 -48 96 -52 118 -87 12 -18 25 -33 30 -33 5 0 27 20 49 44 22
24 67 58 100 75 33 18 60 36 60 41 0 6 -27 24 -61 40 -33 17 -80 49 -103 71
-24 21 -47 38 -52 38 -5 -1 -25 -18 -45 -38z m98 -37 c27 -21 65 -44 85 -54
l37 -16 -53 -32 c-29 -18 -66 -46 -83 -62 l-30 -29 -24 25 c-13 14 -50 42 -82
62 -62 38 -62 37 4 72 20 10 47 30 60 44 13 14 27 26 31 26 4 0 29 -16 55 -36z"/>
<path d="M1976 5298 c-10 -38 -7 -58 8 -58 18 0 30 33 21 60 -8 26 -21 25 -29
-2z"/>
<path d="M6105 5050 c-3 -5 -2 -10 4 -10 5 0 13 5 16 10 3 6 2 10 -4 10 -5 0
-13 -4 -16 -10z"/>
<path d="M6126 5023 c-6 -14 -5 -15 5 -6 7 7 10 15 7 18 -3 3 -9 -2 -12 -12z"/>
<path d="M6140 4990 c-9 -6 -10 -10 -3 -10 6 0 15 5 18 10 8 12 4 12 -15 0z"/>
<path d="M861 4948 c-25 -26 -37 -82 -24 -111 8 -18 5 -25 -21 -42 -17 -11
-36 -32 -43 -45 -18 -36 -16 -101 6 -140 84 -158 147 -269 163 -293 l20 -28
-28 -42 c-16 -23 -32 -50 -36 -60 -4 -9 -16 -20 -25 -23 -43 -14 -89 -38 -99
-52 -8 -11 -24 17 -74 125 -34 76 -66 143 -70 148 -4 6 -24 42 -44 82 -38 75
-61 92 -96 73 -37 -20 -31 -37 117 -383 46 -108 81 -201 78 -206 -3 -6 -10
-46 -16 -91 -5 -45 -17 -93 -26 -106 -9 -14 -43 -38 -77 -55 -123 -61 -148
-105 -154 -274 -3 -101 -7 -123 -24 -141 -10 -12 -19 -30 -18 -40 0 -11 3
-113 6 -229 7 -264 15 -284 149 -381 27 -19 30 -27 33 -91 l4 -70 -43 -24
c-28 -16 -45 -32 -47 -47 -4 -25 6 -27 41 -11 21 10 38 5 121 -34 53 -25 96
-41 96 -36 0 5 -33 30 -72 55 l-73 46 0 94 c0 52 1 94 3 94 1 0 35 -20 75 -44
39 -24 104 -60 142 -81 102 -54 168 -92 182 -104 7 -6 19 -11 26 -11 8 0 20
-6 26 -13 6 -8 29 -22 51 -32 22 -10 40 -22 40 -27 0 -5 5 -6 10 -3 6 3 10 1
10 -4 0 -6 5 -11 11 -11 6 0 57 -28 115 -61 96 -57 106 -66 130 -115 34 -71
31 -156 -7 -185 -21 -16 -22 -18 -6 -24 61 -24 88 126 38 222 -35 68 -71 92
-461 308 -58 32 -152 86 -210 120 -58 35 -136 79 -175 100 -76 41 -139 84
-132 91 2 3 35 -13 73 -34 278 -158 533 -302 668 -378 241 -135 286 -186 286
-324 0 -62 -30 -122 -63 -128 -10 -2 -41 14 -70 36 -29 21 -88 58 -132 82 -44
24 -83 47 -86 52 -3 5 -8 8 -10 7 -4 -3 -73 35 -129 69 -14 9 -47 28 -75 43
-27 15 -125 72 -217 127 l-168 99 -64 -22 c-83 -29 -86 -31 -86 -63 0 -21 8
-32 38 -47 37 -20 37 -21 40 -87 2 -53 0 -68 -11 -68 -8 0 -26 -10 -41 -21
-47 -37 -33 -56 99 -132 605 -349 923 -529 960 -543 l44 -16 98 52 c54 29 161
90 238 135 77 46 156 92 175 103 222 127 434 251 470 276 104 71 133 149 90
244 -23 51 -61 85 -118 107 -24 10 -41 20 -39 24 51 94 59 203 22 295 -24 59
-76 122 -119 146 -21 11 -39 3 -181 -79 -149 -86 -198 -109 -165 -77 14 13 98
62 249 144 l64 35 -59 30 c-32 16 -61 31 -63 33 -2 1 6 23 18 47 54 111 11
235 -93 271 l-37 13 47 69 c25 38 71 112 102 164 137 235 336 560 461 754 57
88 105 174 108 190 8 54 8 54 -392 286 -473 274 -527 303 -544 293 -19 -11
-78 -99 -356 -528 -114 -176 -212 -323 -218 -327 -17 -10 -36 30 -37 74 0 21
7 55 16 77 14 36 20 41 60 47 83 12 135 113 138 268 2 60 8 93 24 126 27 57
28 92 1 146 -23 49 -82 84 -142 84 -19 0 -69 12 -109 26 -135 49 -261 30 -315
-48 l-23 -33 0 31 c0 16 7 39 15 50 8 10 15 22 15 27 0 15 -30 6 -49 -15z
m1194 -145 c88 -50 240 -137 337 -194 98 -57 204 -119 235 -137 32 -18 69 -41
82 -51 23 -17 23 -19 7 -50 -9 -17 -56 -93 -103 -169 -90 -144 -185 -298 -412
-672 -196 -322 -211 -344 -243 -348 -25 -3 -111 35 -169 75 l-27 18 45 100
c25 55 49 110 54 123 l9 22 37 -23 c21 -13 57 -34 80 -45 l41 -21 125 197 c68
108 155 247 192 307 103 167 227 366 252 404 34 51 30 75 -19 109 -53 36 -265
152 -278 152 -26 0 -2 -20 83 -69 215 -126 208 -121 201 -144 -10 -34 -33 -75
-45 -82 -5 -4 -18 0 -27 8 -9 9 -152 94 -317 191 -327 190 -319 184 -274 247
l20 29 60 -30 c33 -17 89 -49 125 -71 65 -40 101 -45 55 -8 -29 23 -137 90
-253 155 -81 45 -101 67 -81 87 3 4 16 1 27 -6 12 -8 93 -55 181 -104z m-188
27 c24 -14 43 -29 43 -33 0 -5 -12 -28 -26 -53 -22 -38 -30 -44 -56 -41 -30 2
-36 -5 -119 -133 -49 -74 -105 -162 -126 -196 -117 -188 -259 -403 -266 -401
-4 1 -17 16 -28 34 l-20 31 24 28 c13 16 70 101 127 189 314 487 394 606 400
602 3 -1 24 -13 47 -27z m205 -286 c305 -178 448 -264 448 -270 0 -2 -29 -50
-64 -107 -182 -290 -246 -394 -324 -522 -119 -196 -106 -187 -186 -134 -36 24
-66 46 -66 49 0 3 6 14 13 24 12 17 15 17 50 0 38 -18 66 -10 33 10 -53 32
-58 40 -45 69 15 32 19 33 69 7 43 -22 50 -24 50 -12 0 6 -32 31 -81 62 -4 3
-3 22 4 42 l13 37 47 -30 c26 -16 51 -29 57 -29 22 0 7 17 -44 50 -45 28 -56
41 -61 70 -3 19 -11 48 -17 63 -6 15 -8 30 -6 33 3 2 45 -23 93 -56 49 -33 96
-60 104 -60 22 1 -26 39 -116 92 -40 23 -73 46 -73 51 0 4 7 23 15 42 l14 35
63 -38 c128 -77 157 -92 163 -83 3 6 -36 35 -87 65 -51 31 -99 60 -107 65 -11
7 -11 15 -2 44 24 71 -25 113 -76 65 -16 -15 -26 -19 -31 -11 -8 12 -230 143
-243 143 -5 0 -9 -3 -9 -7 0 -8 36 -32 155 -101 39 -23 76 -46 84 -51 12 -7 4
-24 -39 -84 l-54 -75 -86 53 c-164 100 -160 98 -160 82 0 -8 47 -42 104 -76
58 -33 107 -65 110 -70 4 -5 -4 -21 -16 -35 -26 -29 -13 -33 -162 52 -41 23
-80 42 -86 42 -27 0 -2 -21 79 -65 48 -26 98 -55 111 -65 22 -17 22 -17 4 -53
l-19 -36 -108 65 c-59 35 -110 64 -113 64 -3 0 -4 -7 -2 -15 2 -8 50 -41 108
-73 95 -52 107 -62 129 -105 13 -26 21 -50 18 -53 -9 -9 -339 183 -364 212
l-23 25 37 57 c20 31 48 77 63 102 15 25 71 113 125 195 54 83 127 195 163
250 69 107 91 135 103 135 4 0 112 -61 241 -136z m-664 -7 c-4 -72 -11 -106
-31 -150 -29 -63 -37 -69 -102 -71 l-44 -1 -23 -87 -23 -88 -35 0 c-74 1 -160
60 -160 110 0 28 3 30 38 30 48 0 136 43 162 80 12 17 20 44 20 70 0 73 33
103 64 58 l15 -21 11 27 c5 15 10 39 10 54 0 66 5 71 89 80 11 2 13 -16 9 -91z
m-848 -94 c6 -16 15 -36 21 -47 8 -14 7 -22 -4 -33 -12 -13 -16 -8 -31 36 -9
27 -16 55 -16 60 0 22 21 10 30 -16z m112 -225 c71 -157 69 -152 54 -189 l-13
-31 -45 104 c-85 193 -90 208 -84 223 13 36 36 9 88 -107z m392 -89 c23 -10
62 -19 87 -19 40 0 47 -3 58 -27 16 -35 3 -43 -77 -43 -100 0 -202 62 -202
124 0 43 20 48 58 14 20 -17 54 -39 76 -49z m936 22 c0 -21 -32 -82 -67 -127
-71 -91 -95 -138 -48 -94 14 13 26 22 27 19 30 -49 40 -78 40 -114 -1 -50 -26
-128 -53 -164 -10 -14 -41 -82 -70 -151 -118 -290 -196 -400 -281 -400 -44 0
-83 17 -115 52 -27 29 -93 138 -93 153 0 7 13 12 30 13 33 1 130 49 137 69 9
23 21 14 40 -32 19 -47 33 -58 33 -26 0 21 37 90 119 219 70 112 73 123 56
173 -20 56 -19 76 6 110 18 26 25 44 28 72 1 4 6 7 12 7 5 0 7 -6 3 -12 -4 -7
2 -4 14 6 12 11 22 23 22 28 0 5 19 37 42 71 23 34 53 79 66 100 23 34 52 50
52 28z m-1150 -142 c-22 -46 -37 -73 -34 -59 8 30 66 151 71 146 2 -2 -15 -41
-37 -87z m145 28 c44 -22 86 -29 175 -29 64 0 82 -4 96 -19 16 -18 15 -19 -22
-15 -21 1 -66 -6 -99 -17 -53 -17 -72 -31 -168 -130 l-108 -110 7 85 c6 77 5
87 -13 104 -19 19 -19 20 8 87 15 37 26 67 23 67 -3 0 0 9 7 21 l11 21 26 -25
c15 -14 41 -31 57 -40z m-157 -202 c4 -45 -5 -85 -18 -85 -6 0 -10 29 -10 66
0 48 3 65 13 62 6 -3 13 -22 15 -43z m455 31 c-83 -21 -154 -77 -252 -198 -30
-38 -56 -68 -58 -68 -13 0 43 74 106 142 87 93 151 133 213 135 l43 2 -52 -13z
m89 -63 c29 -29 128 -281 128 -326 0 -49 -91 -107 -169 -107 -48 0 -51 2 -70
38 -10 20 -33 83 -52 140 -19 59 -39 102 -46 102 -18 0 -18 -3 28 -146 34
-105 47 -135 75 -161 19 -17 34 -39 34 -48 0 -17 -131 -278 -136 -272 -3 2
-25 174 -39 306 -7 62 -42 160 -81 226 l-26 45 26 34 c14 18 22 37 18 41 -4 5
-1 5 6 1 6 -4 12 -4 12 1 0 21 91 105 144 133 70 36 106 35 148 -7z m135 -22
c43 -27 107 -63 141 -80 71 -36 71 -28 2 -131 -20 -30 -49 -77 -65 -105 l-29
-50 -12 50 c-14 59 -98 294 -119 336 -9 16 -11 29 -6 29 5 0 45 -22 88 -49z
m-825 -182 c110 -55 179 -136 212 -249 21 -69 34 -310 18 -310 -7 0 -12 15
-13 33 -5 191 -25 299 -70 369 -58 90 -155 156 -243 165 -64 7 -95 -8 -126
-60 -11 -18 -20 -25 -20 -17 0 28 40 81 73 96 43 19 94 11 169 -27z m-52 -508
c203 -117 205 -117 210 -92 7 37 24 32 28 -7 4 -45 -4 -67 -21 -54 -14 12
-221 132 -322 187 -127 69 -156 100 -122 134 10 10 13 6 17 -20 5 -29 19 -40
210 -148z m739 92 c31 -64 65 -195 65 -259 1 -56 -40 -115 -110 -160 -53 -34
-133 -68 -141 -60 -2 2 -4 52 -5 112 l0 109 76 158 c42 86 79 157 81 157 3 0
18 -26 34 -57z m467 -8 l26 -21 -183 -56 c-101 -32 -192 -58 -203 -60 -14 -2
-22 7 -32 35 -14 40 -13 42 18 26 77 -41 169 -4 239 97 l30 44 40 -22 c21 -13
51 -32 65 -43z m249 -35 c20 0 72 -65 80 -99 10 -48 -4 -108 -33 -143 -20 -23
-100 -68 -287 -159 -411 -202 -467 -221 -643 -219 -34 0 -94 28 -87 40 3 6 10
8 14 5 4 -2 14 14 21 35 7 22 17 40 22 40 5 0 7 4 3 9 -9 15 17 27 70 34 11 1
22 5 25 8 3 4 23 15 45 27 90 46 155 141 155 229 0 41 11 42 44 2 28 -33 42
-72 31 -88 -3 -6 1 -11 9 -11 12 0 16 10 16 35 0 48 -19 84 -54 102 l-31 16
80 24 c44 14 100 31 125 38 25 7 78 25 118 39 41 15 109 32 153 38 43 6 79 15
79 20 0 5 7 2 16 -6 8 -9 21 -16 29 -16z m-1567 -887 c133 -77 344 -199 422
-243 129 -73 335 -192 345 -200 6 -4 40 -24 77 -44 l67 -36 58 31 c32 18 63
36 70 41 7 5 18 6 24 2 7 -4 9 -3 5 4 -6 11 31 38 40 29 3 -3 17 6 31 19 15
14 33 22 40 19 8 -2 12 -1 9 3 -7 12 63 44 76 36 6 -4 8 -2 5 3 -8 13 20 26
35 16 7 -3 8 -1 4 5 -9 14 39 46 55 36 7 -4 9 -3 6 3 -7 12 87 66 97 56 3 -3
6 -1 6 5 0 15 58 45 71 37 5 -4 8 -1 7 7 -2 7 3 12 10 10 6 -1 12 3 12 10 0 6
3 9 6 5 3 -3 15 4 26 15 12 12 26 17 36 13 9 -3 13 -3 9 1 -3 4 13 19 36 33
87 55 155 90 162 83 4 -4 5 0 3 8 -1 8 3 14 10 12 6 -1 12 5 12 13 0 8 3 15 8
15 18 0 112 -62 122 -80 12 -21 18 -16 -105 -87 -38 -23 -110 -64 -158 -92
-48 -28 -92 -51 -96 -51 -5 0 -11 -4 -13 -8 -1 -4 -50 -34 -108 -66 -58 -32
-121 -68 -140 -81 -19 -12 -75 -45 -125 -74 -49 -28 -97 -56 -105 -61 -8 -5
-44 -26 -79 -46 l-63 -36 -37 35 c-31 30 -139 98 -301 189 -210 118 -776 450
-789 464 -2 2 1 4 8 4 7 0 56 -25 109 -57z m318 -245 c192 -110 408 -234 479
-275 138 -79 169 -102 191 -145 25 -49 16 -118 -16 -118 -9 0 -91 42 -181 93
-90 52 -274 156 -409 232 -402 227 -425 241 -421 256 2 8 3 47 2 87 -1 39 0
72 3 72 2 0 161 -91 352 -202z m1715 142 c1 -11 2 -26 3 -32 4 -21 -22 -64
-47 -81 -13 -8 -59 -34 -103 -57 -43 -23 -117 -65 -164 -93 -47 -27 -101 -59
-120 -70 -113 -64 -491 -283 -522 -303 -21 -13 -39 -24 -41 -24 -2 0 -4 17 -4
38 0 20 -2 43 -4 51 -3 10 41 40 131 92 74 43 140 82 145 86 6 5 48 29 95 54
47 24 87 47 88 52 2 4 20 16 40 26 21 10 92 50 160 90 67 39 127 71 132 71 6
0 10 3 10 8 0 4 30 23 68 42 37 19 69 38 72 41 7 8 44 28 53 29 4 0 8 -9 8
-20z m-2091 -102 c0 -13 -32 -6 -37 9 -3 7 3 9 16 6 12 -3 21 -10 21 -15z"/>
<path d="M1790 4480 c0 -12 41 -40 59 -40 11 0 11 4 -3 19 -19 21 -56 34 -56
21z"/>
<path d="M2003 4402 c-35 -9 -63 -21 -63 -27 0 -6 22 -32 48 -58 47 -46 49
-47 95 -41 36 5 47 10 43 21 -4 8 -9 39 -12 69 -8 62 -7 61 -111 36z"/>
<path d="M1730 4391 c0 -8 134 -91 146 -91 2 0 4 5 4 10 0 12 -119 90 -137 90
-7 0 -13 -4 -13 -9z"/>
<path d="M2180 4221 c0 -9 22 -25 100 -71 36 -21 50 -26 50 -15 0 8 -31 32
-68 55 -71 42 -82 46 -82 31z"/>
<path d="M1620 4211 c0 -11 131 -91 149 -91 24 0 -7 27 -74 65 -67 37 -75 40
-75 26z"/>
<path d="M2115 4120 c7 -11 137 -90 148 -90 23 0 -2 25 -62 60 -68 39 -98 50
-86 30z"/>
<path d="M2260 2136 c0 -2 8 -10 18 -17 15 -13 16 -12 3 4 -13 16 -21 21 -21
13z"/>
<path d="M2230 2090 c-9 -6 -10 -10 -3 -10 6 0 15 5 18 10 8 12 4 12 -15 0z"/>
<path d="M1350 1590 c33 -25 120 -77 145 -86 18 -7 19 -6 5 11 -23 29 -131 95
-154 95 -20 0 -20 -1 4 -20z"/>
<path d="M6630 4776 c0 -2 7 -7 16 -10 8 -3 12 -2 9 4 -6 10 -25 14 -25 6z"/>
<path d="M5445 4321 c-5 -9 53 -45 192 -118 28 -15 55 -24 60 -20 9 10 6 12
-139 90 -60 32 -109 53 -113 48z"/>
<path d="M5420 4256 c19 -18 126 -76 139 -76 25 0 7 18 -52 53 -65 38 -117 52
-87 23z"/>
<path d="M7338 4224 c-31 -7 -94 -32 -140 -55 -185 -93 -276 -170 -296 -251
-6 -23 -10 -120 -9 -217 3 -232 5 -236 192 -346 55 -32 127 -75 160 -95 145
-90 171 -95 262 -54 63 27 314 180 376 227 67 52 70 67 69 290 -2 225 -7 242
-84 313 -111 102 -340 206 -446 203 -15 0 -53 -7 -84 -15z m241 -72 c33 -15
40 -22 29 -28 -8 -5 -23 -21 -33 -36 -16 -27 -16 -28 0 -35 18 -6 34 8 60 52
10 17 12 17 45 0 67 -33 120 -70 120 -82 0 -7 -4 -13 -9 -13 -5 0 -35 -21 -67
-46 l-59 -47 38 6 c20 3 58 20 83 36 44 30 46 31 69 14 44 -33 49 -58 51 -243
2 -201 -4 -224 -70 -272 l-40 -29 -13 26 c-8 14 -20 25 -27 25 -22 0 -28 -31
-11 -56 14 -22 13 -24 -50 -63 -35 -23 -66 -41 -69 -41 -2 0 -9 14 -16 30 -16
37 -45 37 -44 0 1 -14 4 -32 8 -41 5 -12 -6 -22 -52 -42 -98 -44 -92 -58 -92
188 0 248 0 248 82 202 66 -37 76 -14 20 45 -31 32 -38 46 -30 55 6 7 17 13
24 13 29 0 23 8 -151 213 -36 43 -75 62 -75 37 0 -11 50 -90 57 -90 2 0 -4 15
-13 33 -9 17 -14 30 -12 27 15 -14 148 -195 148 -200 0 -3 -16 -12 -35 -19
-19 -7 -35 -19 -35 -27 0 -19 -5 -18 -32 9 -59 56 -163 143 -185 155 -39 21
-41 3 -3 -30 19 -17 66 -58 103 -92 l68 -60 -68 -34 c-81 -41 -79 -40 -67 -52
7 -7 31 -2 72 15 34 14 66 25 72 25 6 0 10 -76 10 -216 l0 -215 -22 6 c-13 4
-42 18 -65 31 -37 21 -41 28 -34 47 17 46 -15 65 -41 25 l-15 -22 -54 34 c-30
19 -55 35 -57 36 -2 1 2 12 8 25 11 19 10 25 -6 36 -15 11 -21 10 -40 -8 -28
-26 -52 -15 -86 38 -22 36 -23 46 -23 224 0 180 1 187 24 221 l24 35 51 -38
c53 -40 76 -48 76 -26 0 19 -12 31 -55 57 -22 13 -42 25 -44 27 -9 7 36 45 86
74 l54 31 36 -36 c20 -20 40 -36 45 -36 17 0 7 36 -17 62 l-25 27 24 16 c31
20 82 35 123 35 30 0 32 -2 39 -47 8 -59 11 -64 29 -56 11 4 15 21 15 60 l0
56 53 -6 c28 -3 72 -14 96 -25z"/>
<path d="M7824 3830 c-32 -12 -40 -31 -20 -46 21 -15 66 0 66 21 0 21 -24 33
-46 25z"/>
<path d="M6972 3803 c4 -23 64 -35 79 -17 17 21 1 34 -42 34 -33 0 -40 -3 -37
-17z"/>
<path d="M7807 3643 c-11 -11 -8 -41 5 -45 20 -7 58 4 58 16 0 27 -45 48 -63
29z"/>
<path d="M6970 3625 c-10 -12 -9 -16 3 -21 28 -10 72 0 75 19 3 13 -4 17 -31
17 -19 0 -40 -7 -47 -15z"/>
<path d="M5750 3953 c-162 -96 -314 -184 -336 -194 -51 -23 -62 -36 -69 -80
-11 -69 57 -124 284 -230 92 -44 112 -42 211 17 47 28 178 106 292 173 230
136 258 157 259 198 0 15 2 39 4 53 4 42 -22 77 -88 116 -125 73 -224 124
-243 124 -10 0 -152 -80 -314 -177z m396 108 c38 -21 92 -51 119 -66 60 -34
95 -64 95 -81 0 -16 -57 -52 -379 -244 -129 -76 -248 -142 -264 -146 -23 -5
-44 3 -110 44 -45 27 -104 61 -132 75 -89 47 -105 70 -62 86 15 6 29 5 44 -5
12 -7 61 -35 110 -60 48 -26 105 -58 125 -71 21 -13 47 -23 58 -23 19 0 155
76 448 253 l134 80 -92 53 c-50 30 -94 54 -97 54 -5 0 -84 47 -112 66 -1 2 0
7 4 13 11 19 41 12 111 -28z m-573 -505 c111 -64 137 -86 101 -86 -16 0 -238
124 -276 154 -10 7 -18 21 -18 30 0 14 6 13 38 -7 20 -13 90 -54 155 -91z"/>
<path d="M6155 4030 c-3 -5 1 -10 9 -10 9 0 16 5 16 10 0 6 -4 10 -9 10 -6 0
-13 -4 -16 -10z"/>
<path d="M5102 4007 c-85 -51 -158 -100 -163 -110 -16 -28 18 -73 73 -97 l49
-21 57 32 c103 58 281 171 293 186 10 11 8 18 -7 33 -25 24 -112 70 -133 70
-9 0 -85 -42 -169 -93z m208 -45 c-152 -98 -251 -154 -258 -147 -4 4 -1 10 5
12 7 3 79 45 160 94 156 94 220 122 93 41z"/>
<path d="M4966 3551 c-5 -7 281 -171 298 -171 3 0 6 4 6 9 0 19 -296 176 -304
162z"/>
<path d="M5850 3267 c-146 -82 -190 -111 -190 -124 0 -7 3 -13 6 -13 3 0 49
27 102 59 54 32 118 69 145 82 26 13 47 29 47 36 0 20 -8 17 -110 -40z"/>
<path d="M5470 3135 c0 -2 10 -10 23 -16 20 -11 21 -11 8 4 -13 16 -31 23 -31
12z"/>
<path d="M5520 3099 c0 -5 5 -7 10 -4 6 3 10 8 10 11 0 2 -4 4 -10 4 -5 0 -10
-5 -10 -11z"/>
<path d="M5280 2790 c0 -5 7 -7 15 -4 8 4 15 8 15 10 0 2 -7 4 -15 4 -8 0 -15
-4 -15 -10z"/>
<path d="M8055 2333 c-16 -9 -74 -42 -128 -75 -53 -32 -100 -58 -104 -58 -3 0
-27 -13 -52 -28 -25 -16 -192 -112 -370 -213 -179 -101 -340 -199 -357 -216
-50 -49 -68 -147 -51 -274 7 -51 42 -109 66 -109 4 0 86 -44 182 -99 309 -175
602 -341 694 -395 160 -94 202 -116 219 -116 21 0 33 48 15 65 -13 12 -391
230 -814 469 -224 127 -262 151 -277 176 -19 30 -24 24 -20 -20 5 -48 -2 -51
-24 -8 -13 24 -15 53 -12 132 4 115 17 147 76 185 37 25 317 185 567 326 77
43 203 114 280 157 77 44 147 83 155 87 8 5 14 12 13 17 -3 15 -27 14 -58 -3z"/>
<path d="M7995 2238 c-77 -44 -306 -175 -510 -290 -203 -116 -383 -223 -398
-237 -37 -36 -46 -91 -17 -109 11 -7 125 -72 253 -146 323 -186 426 -245 469
-272 21 -13 40 -24 44 -24 3 0 18 -9 32 -19 72 -50 348 -201 370 -201 14 0 46
13 71 28 25 16 91 54 146 84 55 31 242 136 415 233 173 98 344 194 380 213 36
19 73 42 83 51 16 13 19 13 27 1 6 -8 10 -18 10 -21 0 -6 -219 -130 -675 -384
-126 -70 -277 -155 -335 -188 -58 -33 -111 -60 -117 -60 -17 0 -17 -32 0 -45
10 -9 23 -5 52 15 22 15 78 46 125 71 47 24 132 70 190 102 205 113 293 160
298 160 3 0 13 6 21 14 9 7 41 27 71 43 30 17 114 64 187 107 73 42 135 76
138 76 13 0 45 36 45 52 0 10 5 18 10 18 6 0 10 15 10 34 0 32 -4 35 -112 97
-84 47 -114 70 -116 86 -2 16 -35 40 -130 94 -70 40 -242 138 -382 219 -369
212 -491 280 -504 279 -6 -1 -74 -37 -151 -81z m358 -295 c24 -14 -15 -53 -53
-53 -36 0 -43 10 -27 44 10 22 16 25 42 20 17 -4 33 -8 38 -11z m-209 -22 c17
-7 17 -8 -5 -33 -25 -27 -84 -44 -94 -28 -3 6 -2 10 3 10 5 0 15 14 22 30 13
31 34 37 74 21z m-207 -49 c7 -4 10 -17 6 -30 -4 -18 -12 -22 -49 -22 -49 0
-50 1 -28 35 16 25 47 32 71 17z m431 -68 c25 -7 29 -26 8 -43 -8 -7 -26 -8
-50 -4 -35 8 -36 9 -21 31 17 23 26 26 63 16z m-188 -34 c36 -19 -9 -60 -66
-60 l-24 0 22 35 c24 37 37 41 68 25z m928 -30 c17 -11 32 -24 32 -29 0 -14
-36 -37 -225 -146 -262 -151 -267 -154 -490 -285 -115 -68 -229 -134 -253
-148 l-42 -24 -46 27 -46 27 32 19 c17 11 36 17 41 13 5 -3 8 -2 7 3 -2 4 1 9
6 10 5 1 12 6 15 11 12 19 163 102 173 95 6 -3 8 -1 5 4 -8 13 20 26 35 16 6
-3 8 -1 5 4 -7 11 165 116 189 116 7 0 11 3 9 7 -6 10 126 81 138 73 5 -3 7
-1 4 4 -8 13 127 86 138 75 5 -4 4 -1 0 7 -6 11 -4 13 9 8 10 -4 15 -3 11 3
-3 5 4 14 15 20 11 6 20 8 20 5 0 -3 10 4 22 15 12 11 28 18 35 16 7 -3 12 -1
10 4 -2 10 89 69 108 69 6 1 25 -8 43 -19z m-1124 -18 c3 -5 2 -19 -1 -31 -5
-20 -10 -22 -42 -16 -49 9 -61 23 -37 41 21 15 72 19 80 6z m449 -71 c4 -4 -1
-18 -11 -31 -16 -19 -24 -21 -59 -15 l-42 7 27 29 c21 24 32 29 52 24 14 -4
29 -10 33 -14z m-224 -22 c36 -13 35 -10 19 -44 -11 -25 -30 -30 -76 -17 l-22
7 22 32 c13 18 23 33 24 33 1 0 15 -5 33 -11z m-192 -42 c22 -12 22 -14 7 -35
-13 -19 -21 -22 -52 -16 -20 4 -38 8 -40 9 -8 7 14 38 32 45 27 11 27 11 53
-3z"/>
<path d="M9246 2236 c-14 -19 -51 -46 -81 -61 -30 -14 -55 -31 -55 -38 0 -7
24 -24 53 -38 34 -16 62 -38 82 -66 35 -49 49 -53 69 -15 20 38 65 78 108 96
54 23 54 33 0 56 -27 12 -66 39 -88 61 -21 21 -43 39 -50 39 -6 0 -23 -15 -38
-34z m54 0 c0 -16 46 -59 84 -78 l29 -15 -44 -29 c-24 -16 -53 -44 -65 -61
l-21 -32 -24 37 c-13 20 -41 46 -62 58 l-38 21 35 21 c20 12 48 39 63 60 27
38 43 45 43 18z"/>
<path d="M9275 2141 c-11 -35 16 -58 29 -24 4 9 0 23 -8 31 -12 12 -15 11 -21
-7z"/>
<path d="M2362 1682 c-69 -26 -102 -60 -127 -131 -12 -36 -15 -109 -15 -420 0
-340 2 -379 17 -401 27 -39 54 -58 113 -81 45 -17 71 -20 146 -17 81 3 98 7
139 33 61 38 87 73 94 127 3 23 4 200 1 393 l-5 351 -34 53 c-53 83 -104 109
-225 115 -24 1 -67 -8 -104 -22z m213 -31 c84 -38 82 -98 -5 -145 -78 -43
-190 -29 -252 31 -34 32 -35 53 -5 81 56 53 183 69 262 33z m120 -171 c-13
-68 -101 -120 -216 -128 -60 -4 -75 -1 -133 26 -75 35 -105 77 -91 128 l8 29
13 -31 c19 -45 56 -71 120 -84 132 -28 273 29 274 109 l1 26 14 -26 c8 -15 12
-37 10 -49z m5 -130 c1 -30 1 -125 0 -210 0 -130 -3 -157 -18 -173 -18 -20
-82 -50 -90 -43 -2 3 -5 95 -6 204 l-2 200 42 26 c23 15 48 33 54 42 17 20 19
17 20 -46z m-406 21 c4 -5 31 -17 62 -27 50 -16 55 -19 49 -41 -5 -20 -1 -26
25 -34 42 -15 42 -49 0 -49 -23 0 -30 -4 -30 -20 0 -15 9 -22 30 -26 23 -5 30
-12 30 -30 0 -21 -3 -23 -31 -17 -28 5 -30 4 -27 -18 2 -14 14 -29 31 -37 15
-8 27 -21 27 -32 0 -16 -5 -19 -30 -13 -26 5 -30 3 -30 -17 0 -15 9 -25 30
-33 16 -6 31 -16 34 -23 6 -16 -78 -26 -108 -12 -26 11 -46 41 -22 32 13 -5
13 0 1 81 -1 11 -3 46 -4 79 -1 47 -4 57 -16 52 -19 -7 -19 1 0 20 11 11 12
21 5 33 -5 10 -6 21 -3 25 3 3 0 6 -7 6 -9 0 -8 4 4 13 16 11 17 17 7 36 -14
25 -36 23 -35 -2 0 -9 1 -35 2 -57 2 -33 5 -38 20 -34 16 5 16 5 0 -9 -22 -18
-23 -47 -2 -47 8 0 13 -4 9 -10 -3 -5 -13 -7 -23 -4 -14 5 -14 3 2 -10 11 -9
14 -16 8 -16 -7 0 -12 -4 -12 -10 0 -5 8 -7 18 -3 13 5 12 1 -5 -16 -13 -12
-23 -25 -23 -30 0 -14 13 -21 24 -12 8 6 12 -3 14 -29 1 -21 -2 -41 -8 -45 -5
-3 -10 2 -11 12 0 14 -3 12 -10 -6 -13 -34 -6 -47 38 -69 99 -50 207 -52 309
-7 32 14 59 24 60 22 8 -7 -114 -58 -156 -65 -93 -16 -204 12 -267 67 -23 19
-23 23 -23 240 0 216 0 221 19 211 11 -5 22 -14 25 -19z m21 -61 c3 -5 1 -10
-4 -10 -6 0 -11 5 -11 10 0 6 2 10 4 10 3 0 8 -4 11 -10z m-50 -410 c17 -28
104 -58 185 -64 74 -6 93 -5 145 15 33 12 70 31 83 42 l22 20 0 -67 c0 -44 -6
-77 -16 -95 -49 -84 -219 -119 -329 -67 -60 27 -105 77 -106 114 0 15 -1 46
-3 70 -2 40 6 54 19 32z"/>
<path d="M2413 1646 c-98 -24 -126 -61 -80 -104 52 -49 169 -61 230 -23 48 29
60 47 53 74 -12 48 -116 75 -203 53z m142 -37 c25 -24 14 -45 -39 -72 -44 -23
-79 -13 -98 28 -28 62 81 97 137 44z"/>
<path d="M2280 1030 c0 -5 4 -10 9 -10 6 0 13 5 16 10 3 6 -1 10 -9 10 -9 0
-16 -4 -16 -10z"/>
<path d="M7052 1563 c2 -9 56 -47 123 -86 66 -38 183 -105 260 -150 77 -44
199 -115 270 -157 286 -169 412 -240 424 -240 46 0 -40 56 -459 297 -327 188
-541 314 -572 335 -33 23 -50 23 -46 1z"/>
<path d="M6640 1047 c-14 -14 -38 -28 -170 -100 -30 -17 -66 -38 -80 -47 -14
-9 -50 -29 -80 -45 -30 -15 -68 -38 -85 -50 -62 -47 -140 -84 -155 -75 -8 5
-28 6 -45 4 -23 -4 -27 -3 -15 5 14 10 8 13 -16 10 -4 0 -10 5 -15 12 -6 11
-9 10 -15 -4 -11 -29 2 -43 78 -86 40 -23 96 -56 123 -73 71 -43 113 -47 169
-14 25 14 49 32 53 40 4 7 34 30 66 51 31 21 57 40 57 42 0 2 -16 -3 -35 -11
-43 -18 -46 -12 -4 10 20 10 28 19 22 25 -7 7 -22 3 -44 -9 -19 -11 -60 -30
-91 -43 -62 -24 -68 -32 -40 -48 16 -10 16 -12 -2 -26 -11 -8 -29 -15 -40 -15
-28 0 -233 106 -223 116 2 2 17 -2 35 -8 25 -10 34 -9 49 3 36 31 463 273 501
284 52 15 14 -15 -101 -78 -67 -37 -171 -97 -232 -133 -60 -35 -126 -72 -145
-81 l-35 -16 30 -13 c24 -10 34 -10 50 0 42 26 262 155 305 178 113 60 211
121 220 137 14 28 -10 65 -45 69 -17 2 -37 -4 -45 -11z m-225 -373 c-31 -24
-55 -36 -55 -27 0 4 15 16 33 25 40 21 48 22 22 2z"/>
<path d="M8715 1029 c-38 -16 -76 -27 -83 -24 -7 3 -10 1 -7 -5 6 -9 -34 -36
-47 -32 -5 1 -8 -3 -8 -9 0 -5 -4 -8 -9 -5 -5 4 -11 2 -13 -2 -1 -5 -23 -21
-47 -36 -35 -23 -45 -25 -53 -14 -7 10 -9 8 -5 -7 3 -18 -1 -20 -37 -19 -23 1
-52 -3 -66 -8 -39 -15 -130 -87 -130 -103 0 -21 27 -19 51 4 21 19 21 19 51
-15 32 -37 58 -43 82 -19 8 8 18 15 23 15 4 0 30 16 58 34 27 19 53 32 57 29
5 -2 8 0 8 5 0 5 14 15 30 22 17 7 30 16 30 20 0 4 15 14 33 21 36 15 167 145
167 166 0 17 -3 17 -85 -18z m-35 -69 c-38 -29 -179 -112 -201 -117 -50 -13
-8 19 99 75 125 66 141 73 102 42z m-261 -167 c-15 -18 -34 -17 -50 3 -11 14
-10 18 6 30 16 12 21 12 37 -3 14 -12 15 -19 7 -30z"/>
<path d="M3601 986 c-8 -9 -10 -28 -6 -49 6 -33 5 -36 -44 -66 -28 -17 -60
-31 -70 -31 -43 0 -62 -53 -23 -62 31 -7 52 3 52 25 0 16 14 29 48 48 l48 27
27 -20 c45 -33 86 -33 132 -3 34 24 42 26 60 14 11 -7 31 -18 45 -26 15 -8 25
-21 25 -35 0 -28 45 -37 64 -14 16 19 7 46 -15 46 -9 0 -43 14 -76 32 -56 30
-59 34 -55 62 5 36 -7 66 -28 66 -17 0 -19 -18 -5 -55 l10 -26 -29 20 c-37 26
-65 27 -101 1 l-29 -20 -6 21 c-4 11 -2 26 4 32 6 6 11 15 11 19 0 13 -27 9
-39 -6z m144 -70 c39 -28 -19 -75 -70 -56 -32 12 -33 47 -2 60 32 13 51 12 72
-4z"/>
<path d="M4890 801 c0 -12 42 -42 189 -132 108 -67 157 -84 99 -34 -25 21
-274 175 -284 175 -2 0 -4 -4 -4 -9z"/>
<path d="M5515 769 c-4 -6 -5 -12 -2 -15 2 -3 7 2 10 11 7 17 1 20 -8 4z"/>
<path d="M3670 711 c-12 -23 14 -56 37 -47 8 3 18 6 23 6 4 0 10 9 13 21 4 15
-1 22 -19 30 -35 13 -42 12 -54 -10z"/>
<path d="M5435 670 c-3 -6 1 -7 9 -4 18 7 21 14 7 14 -6 0 -13 -4 -16 -10z"/>
<path d="M6210 650 c20 -13 43 -13 35 0 -3 6 -16 10 -28 10 -18 0 -19 -2 -7
-10z"/>
<path d="M6265 630 c-3 -5 1 -10 10 -10 9 0 13 5 10 10 -3 6 -8 10 -10 10 -2
0 -7 -4 -10 -10z"/>
</g>
</svg>
