<svg width="800" height="800" viewBox="0 0 800 800" fill="none" xmlns="http://www.w3.org/2000/svg">
<g clip-path="url(#clip0_1_2)">
<path d="M252.485 162.798C254.11 164.423 264.453 173.584 275.387 183.336C286.32 193.088 296.22 202.101 297.254 203.283C298.88 205.351 297.698 205.942 287.65 208.159C228.105 221.013 136.793 249.825 83.0111 273.023C77.8397 275.239 75.0324 277.603 79.3172 276.125C81.9768 275.239 135.02 271.102 166.049 269.476C181.12 268.59 219.388 267.999 251.007 267.999C306.415 267.999 309.37 267.851 326.362 264.305C372.609 254.849 435.7 256.179 491.551 267.999C500.268 269.772 507.36 271.693 507.36 272.284C507.36 272.727 503.223 273.318 498.2 273.614C433.779 275.978 345.274 291.935 258.395 316.905C198.259 334.193 135.316 355.174 91.433 372.313L61.8823 383.986L182.154 384.429L302.278 384.725L323.259 378.814C365.073 366.846 398.466 362.266 442.349 362.266C471.604 362.266 521.249 366.994 518.737 369.358C518.442 369.654 510.906 370.983 502.041 372.165C438.064 381.178 368.767 398.022 286.468 424.618C228.992 443.235 143.59 473.377 125.564 481.356C120.836 483.424 116.108 485.197 114.926 485.197C113.892 485.197 112.71 485.64 112.414 486.231C111.971 486.97 152.012 486.97 201.362 486.379L290.901 485.493L305.676 476.036C324.736 464.068 360.493 446.042 380.587 438.211C403.637 429.346 435.256 420.481 462 415.605C474.854 413.241 486.527 411.32 487.857 411.32C489.334 411.32 485.197 413.684 478.696 416.492C399.204 451.362 324.145 505.292 230.322 594.978L214.069 610.492L278.046 609.606L341.876 608.867L356.356 594.092C364.187 586.113 377.337 572.667 385.316 564.541L399.943 549.618L407.035 557.301C421.515 573.111 429.051 593.058 429.051 615.959C429.051 637.679 425.061 652.159 413.389 673.879C409.843 680.676 406.888 686.29 406.888 686.586C406.888 687.472 434.813 684.517 446.042 682.301C481.503 675.356 515.191 656.444 537.354 631.03C554.346 611.527 568.235 584.488 572.963 561.734C576.657 543.708 576.214 542.526 569.269 553.312C561.734 564.837 543.264 584.192 534.104 589.955C526.273 594.978 513.566 598.968 505.883 598.968C500.711 598.968 500.268 598.524 497.609 591.875C495.392 586.409 494.801 581.237 494.949 567.201C494.949 550.8 495.392 548.584 499.825 537.207C515.191 498.495 554.346 464.216 594.831 453.873C604.73 451.362 610.049 450.918 624.677 451.509C640.339 452.1 643.737 452.691 651.864 456.385L661.024 460.522L660.138 468.058C658.069 485.345 648.022 513.418 639.157 526.273C637.679 528.489 634.872 532.922 632.951 536.025L629.553 541.787L640.93 534.104C665.457 517.555 691.462 495.097 737.561 450.475C746.722 441.462 755.291 433.631 756.473 433.04C759.133 431.563 759.133 431.563 735.197 395.067C705.203 349.411 678.459 313.803 658.217 292.674C622.017 254.701 547.697 220.127 450.475 195.747C412.355 186.143 344.24 173.732 284.991 165.31C270.363 163.389 256.474 161.321 253.962 160.877C249.53 160.139 249.53 160.139 252.485 162.798ZM556.858 299.766C591.728 309.813 612.413 320.156 625.711 334.045C634.724 343.501 651.125 364.039 650.386 364.925C649.204 365.96 625.563 362.561 612.413 359.459C589.955 354.287 585.227 350.889 565.428 327.248C557.597 317.792 548.14 306.563 544.447 302.13C539.571 296.368 538.536 294.447 540.605 295.038C542.23 295.629 549.47 297.697 556.858 299.766Z" fill="#262626"/>
</g>
<defs>
<clipPath id="clip0_1_2">
<rect width="800" height="800" fill="white"/>
</clipPath>
</defs>
</svg>
