<svg width="696" height="527" viewBox="0 0 696 527" fill="none" xmlns="http://www.w3.org/2000/svg">
<path d="M190.603 3.05109C192.228 4.67639 202.571 13.8371 213.504 23.5889C224.438 33.3406 234.338 42.3536 235.372 43.5356C236.997 45.6042 235.815 46.1952 225.768 48.4115C166.223 61.2661 74.9112 90.0781 21.1288 113.275C15.9574 115.492 13.1501 117.856 17.435 116.378C20.0945 115.492 73.1382 111.355 104.167 109.729C119.237 108.843 157.506 108.252 189.125 108.252C244.533 108.252 247.488 108.104 264.479 104.558C310.726 95.1017 373.817 96.4315 429.668 108.252C438.386 110.025 445.478 111.946 445.478 112.537C445.478 112.98 441.341 113.571 436.317 113.867C371.897 116.231 283.392 132.188 196.513 157.158C136.377 174.446 73.4337 195.427 29.5508 212.566L0 224.239L120.272 224.682L240.396 224.977L261.377 219.067C303.191 207.099 336.583 202.519 380.466 202.519C409.722 202.519 459.367 207.247 456.855 209.611C456.56 209.907 449.024 211.236 440.159 212.418C376.181 221.431 306.885 238.275 224.586 264.871C167.11 283.488 81.7079 313.63 63.6819 321.609C58.9538 323.677 54.2257 325.45 53.0437 325.45C52.0094 325.45 50.8273 325.893 50.5318 326.484C50.0886 327.223 90.1299 327.223 139.48 326.632L229.019 325.746L243.794 316.289C262.854 304.321 298.611 286.295 318.705 278.464C341.755 269.599 373.374 260.734 400.118 255.858C412.972 253.494 424.645 251.573 425.975 251.573C427.452 251.573 423.315 253.937 416.814 256.745C337.322 291.614 262.263 345.545 168.439 435.231L152.187 450.745L216.164 449.859L279.994 449.12L294.474 434.345C302.305 426.366 315.455 412.92 323.433 404.794L338.061 389.871L345.153 397.554C359.633 413.364 367.168 433.31 367.168 456.212C367.168 477.932 363.179 492.412 351.507 514.132C347.96 520.929 345.005 526.543 345.005 526.839C345.005 527.725 372.931 524.77 384.16 522.554C419.621 515.609 453.309 496.697 475.472 471.283C492.464 451.78 506.353 424.741 511.081 401.987C514.775 383.961 514.331 382.779 507.387 393.565C499.851 405.089 481.382 424.445 472.221 430.208C464.391 435.231 451.684 439.221 444 439.221C438.829 439.221 438.386 438.777 435.726 432.128C433.51 426.662 432.919 421.49 433.067 407.454C433.067 391.053 433.51 388.837 437.943 377.459C453.309 338.748 492.464 304.469 532.948 294.126C542.848 291.614 548.167 291.171 562.795 291.762C578.457 292.353 581.855 292.944 589.981 296.638L599.142 300.775L598.256 308.311C596.187 325.598 586.14 353.671 577.275 366.526C575.797 368.742 572.99 373.175 571.069 376.277L567.671 382.04L579.048 374.357C603.575 357.808 629.579 335.35 675.679 290.728C684.839 281.715 693.409 273.884 694.591 273.293C697.251 271.815 697.251 271.815 673.315 235.32C643.32 189.664 616.577 154.056 596.335 132.927C560.135 94.954 485.815 60.3796 388.593 36.0002C350.472 26.3962 282.358 13.9849 223.108 5.56287C208.481 3.64209 194.592 1.57355 192.08 1.13025C187.647 0.391479 187.647 0.391479 190.603 3.05109ZM494.976 140.019C529.846 150.066 550.531 160.409 563.829 174.298C572.842 183.754 589.243 204.292 588.504 205.178C587.322 206.213 563.681 202.814 550.531 199.712C528.072 194.54 523.344 191.142 503.545 167.501C495.714 158.045 486.258 146.816 482.564 142.383C477.688 136.621 476.654 134.7 478.723 135.291C480.348 135.882 487.588 137.95 494.976 140.019Z" fill="#404040"/>
</svg>
